<svg xmlns="http://www.w3.org/2000/svg" xmlns:xlink="http://www.w3.org/1999/xlink" width="800" zoomAndPan="magnify" viewBox="0 0 600 225" height="300" preserveAspectRatio="xMidYMid meet" version="1.0"><defs><g/><clipPath id="8974c4eef1"><path d="M 90 13 L 226 13 L 226 99.785156 L 90 99.785156 Z M 90 13 " clip-rule="nonzero"/></clipPath><clipPath id="41eb768758"><path d="M 88 170 L 211 170 L 211 201 L 88 201 Z M 88 170 " clip-rule="nonzero"/></clipPath><clipPath id="89c5ae30e5"><path d="M 81.039062 158.828125 L 218.988281 162.613281 L 217.527344 215.84375 L 79.578125 212.058594 Z M 81.039062 158.828125 " clip-rule="nonzero"/></clipPath><clipPath id="8c0ee0522a"><path d="M 81.039062 158.828125 L 218.988281 162.613281 L 217.527344 215.84375 L 79.578125 212.058594 Z M 81.039062 158.828125 " clip-rule="nonzero"/></clipPath><clipPath id="639e15fee6"><path d="M 81.039062 158.828125 L 218.988281 162.613281 L 217.527344 215.84375 L 79.578125 212.058594 Z M 81.039062 158.828125 " clip-rule="nonzero"/></clipPath><clipPath id="7883055170"><path d="M 88.664062 166.628906 L 210.824219 169.980469 L 209.949219 201.941406 L 87.785156 198.589844 Z M 88.664062 166.628906 " clip-rule="nonzero"/></clipPath><clipPath id="3061e3eab1"><path d="M 100 180 L 196 180 L 196 196 L 100 196 Z M 100 180 " clip-rule="nonzero"/></clipPath><clipPath id="fdc85c4c2a"><path d="M 81.039062 158.828125 L 218.988281 162.613281 L 217.527344 215.84375 L 79.578125 212.058594 Z M 81.039062 158.828125 " clip-rule="nonzero"/></clipPath><clipPath id="4d79997d2e"><path d="M 81.039062 158.828125 L 218.988281 162.613281 L 217.527344 215.84375 L 79.578125 212.058594 Z M 81.039062 158.828125 " clip-rule="nonzero"/></clipPath><clipPath id="3e3bcd7d68"><path d="M 81.039062 158.828125 L 218.988281 162.613281 L 217.527344 215.84375 L 79.578125 212.058594 Z M 81.039062 158.828125 " clip-rule="nonzero"/></clipPath><clipPath id="270f074959"><path d="M 80 169 L 91 169 L 91 183 L 80 183 Z M 80 169 " clip-rule="nonzero"/></clipPath><clipPath id="e69cdb5768"><path d="M 81.039062 158.828125 L 218.988281 162.613281 L 217.527344 215.84375 L 79.578125 212.058594 Z M 81.039062 158.828125 " clip-rule="nonzero"/></clipPath><clipPath id="e90b6b940a"><path d="M 81.039062 158.828125 L 218.988281 162.613281 L 217.527344 215.84375 L 79.578125 212.058594 Z M 81.039062 158.828125 " clip-rule="nonzero"/></clipPath><clipPath id="5368145491"><path d="M 81.039062 158.828125 L 218.988281 162.613281 L 217.527344 215.84375 L 79.578125 212.058594 Z M 81.039062 158.828125 " clip-rule="nonzero"/></clipPath><clipPath id="74ece56c3b"><path d="M 204 162 L 219 162 L 219 182 L 204 182 Z M 204 162 " clip-rule="nonzero"/></clipPath><clipPath id="0c30a82528"><path d="M 81.039062 158.828125 L 218.988281 162.613281 L 217.527344 215.84375 L 79.578125 212.058594 Z M 81.039062 158.828125 " clip-rule="nonzero"/></clipPath><clipPath id="0a241239b9"><path d="M 81.039062 158.828125 L 218.988281 162.613281 L 217.527344 215.84375 L 79.578125 212.058594 Z M 81.039062 158.828125 " clip-rule="nonzero"/></clipPath><clipPath id="544c6a0a8d"><path d="M 81.039062 158.828125 L 218.988281 162.613281 L 217.527344 215.84375 L 79.578125 212.058594 Z M 81.039062 158.828125 " clip-rule="nonzero"/></clipPath><clipPath id="466ec594bb"><path d="M 204.765625 162.296875 L 218.980469 162.6875 L 218.449219 182.09375 L 204.234375 181.703125 Z M 204.765625 162.296875 " clip-rule="nonzero"/></clipPath></defs><g clip-path="url(#8974c4eef1)"><path fill="#e3732e" d="M 207.363281 44.136719 C 207.371094 44.105469 207.378906 44.074219 207.378906 44.042969 C 208.464844 39.257812 208.140625 33.886719 204.980469 29.925781 C 200.515625 23.449219 192.261719 20.738281 184.660156 22.027344 C 179.949219 22.742188 175.246094 24.742188 171.613281 27.910156 C 170.492188 25.773438 169.023438 23.816406 167.34375 22.078125 C 164.792969 19.445312 161.605469 17.554688 158.277344 16.074219 C 152.582031 13.433594 146.085938 12.785156 139.921875 13.777344 C 121.230469 16.480469 109.941406 28.789062 109.265625 47.632812 C 107.445312 47.257812 105.5625 47.371094 103.710938 47.46875 C 99.664062 47.65625 95.449219 49.207031 93.265625 52.8125 C 89.964844 57.914062 89.277344 66.199219 92.265625 71.558594 C 95.816406 78.082031 103.035156 81.980469 110.296875 82.65625 C 112.652344 82.828125 115.023438 82.703125 117.289062 81.996094 C 117.933594 81.769531 118.640625 81.535156 119.273438 81.203125 C 119.441406 81.121094 120.476562 85.261719 120.523438 85.554688 C 120.976562 88.375 120.207031 90.835938 119.761719 93.566406 C 119.703125 93.914062 119.355469 94.816406 119.222656 95.15625 C 118.875 95.75 118.625 96.449219 119.011719 97.089844 C 119.882812 98.601562 121.578125 97.683594 122.765625 97.128906 C 122.96875 97.03125 123.804688 96.714844 124.15625 96.578125 C 130.691406 94.277344 137.574219 93.230469 144.402344 92.230469 C 152.761719 91.113281 159.414062 90.40625 168.226562 90.589844 C 173.191406 90.679688 181.449219 91.542969 184.667969 92.09375 C 187.671875 92.703125 190.734375 93.183594 193.683594 94.027344 C 193.527344 94.09375 193.34375 94.171875 193.125 94.253906 C 192.992188 94.296875 192.855469 94.351562 192.71875 94.394531 C 191.5 94.792969 190.253906 95.066406 188.988281 95.277344 C 186.300781 95.683594 184.007812 95.878906 182.378906 96.015625 C 175.742188 96.570312 169.082031 96.691406 162.425781 96.636719 C 152.273438 96.527344 142.121094 96.8125 131.976562 96.472656 C 130.816406 96.433594 129.660156 96.359375 128.5 96.308594 C 129.5 96.496094 130.496094 96.699219 131.496094 96.871094 C 141.675781 98.601562 151.992188 99.339844 162.304688 99.761719 C 168.316406 99.972656 174.34375 99.777344 180.347656 99.363281 C 184.277344 99.03125 188.25 98.835938 192.097656 97.917969 C 194.097656 97.4375 198.355469 96.015625 198.257812 93.679688 C 198.507812 92.671875 198.445312 91.492188 198.34375 90.597656 C 197.851562 86.398438 197.453125 81.46875 197.90625 77.328125 C 197.941406 76.984375 197.980469 76.644531 198.019531 76.296875 C 198.214844 76.378906 198.402344 76.464844 198.597656 76.53125 C 208.5625 79.722656 222.195312 70.738281 224.972656 61.050781 C 228.429688 49.335938 218.847656 38.136719 207.363281 44.136719 Z M 170.394531 34.417969 C 170.917969 37.203125 170.761719 39.875 169.699219 41.410156 C 169.617188 41.5 169.519531 41.570312 169.421875 41.644531 C 169.398438 41.628906 169.378906 41.613281 169.347656 41.589844 C 169.332031 41.578125 169.316406 41.554688 169.292969 41.53125 C 169.265625 41.484375 169.234375 41.433594 169.195312 41.375 C 168.65625 40.726562 168.648438 38.710938 169.023438 37.542969 C 169.363281 36.4375 169.828125 35.398438 170.394531 34.417969 Z M 174.222656 80.535156 C 179.800781 80.894531 185.359375 81.890625 190.703125 83.53125 C 192.238281 84.003906 193.742188 84.554688 195.226562 85.15625 C 195.242188 86.09375 195.277344 87.042969 195.355469 87.976562 C 195.445312 89.074219 195.640625 90.160156 195.761719 91.25 C 195.496094 91.167969 195.234375 91.09375 194.96875 91.015625 C 193.429688 90.609375 191.871094 90.273438 190.3125 89.941406 C 186.59375 89.128906 182.832031 88.503906 179.039062 88.136719 C 167.953125 86.765625 156.742188 87.328125 145.703125 88.8125 C 138.109375 89.882812 130.402344 90.925781 123.164062 93.53125 C 123.324219 92.777344 123.449219 92.027344 123.585938 91.273438 C 123.75 90.28125 123.878906 89.285156 123.933594 88.277344 C 127.613281 86.652344 131.308594 85.175781 135.175781 84.011719 C 137.574219 83.289062 140.089844 82.882812 142.527344 82.324219 C 142.867188 82.25 142.828125 81.695312 142.46875 81.699219 C 140.210938 81.738281 138.003906 82.054688 135.785156 82.476562 C 133.535156 82.90625 131.316406 83.328125 129.101562 83.9375 C 127.320312 84.433594 125.574219 85.003906 123.863281 85.667969 C 123.847656 85.539062 123.84375 85.402344 123.820312 85.277344 C 123.488281 82.695312 122.5625 80.210938 121.335938 77.929688 C 120.160156 75.824219 118.183594 72.785156 117.988281 71.851562 C 119.265625 70.730469 123.828125 68.75 127.136719 67.855469 C 127.515625 67.742188 127.890625 67.644531 128.257812 67.539062 C 129.011719 67.765625 129.765625 67.96875 130.53125 68.132812 C 134.707031 69.050781 139.027344 69.433594 143.300781 69.3125 C 151.761719 69.089844 160.292969 67.273438 168.015625 63.761719 C 171.320312 64 174.621094 64.339844 177.910156 64.753906 C 184.578125 65.589844 190.644531 66.546875 197.175781 68.171875 C 196.730469 69.570312 196.414062 71.015625 196.167969 72.476562 C 195.746094 74.988281 195.511719 77.5625 195.347656 80.105469 C 195.285156 80.976562 195.257812 81.851562 195.234375 82.722656 C 191.539062 81.617188 187.753906 80.804688 183.9375 80.324219 C 180.71875 79.917969 177.488281 79.8125 174.246094 79.957031 C 173.898438 79.992188 173.863281 80.511719 174.222656 80.535156 Z M 219.308594 65.621094 C 215.566406 70.75 208.679688 76.253906 200.976562 76.375 C 199.988281 76.375 199.011719 76.246094 198.054688 76.011719 C 198.582031 71.558594 199.371094 67.09375 201.9375 63.390625 C 203.355469 61.34375 205.300781 59.5625 207.6875 58.75 C 209.066406 58.28125 210.871094 58.078125 211.902344 59.335938 C 212.851562 60.503906 211.933594 61.691406 210.984375 62.472656 C 209.726562 63.503906 208.34375 64.339844 207.132812 65.429688 C 205.820312 66.613281 204.722656 67.921875 203.761719 69.40625 C 203.464844 69.847656 204.121094 70.4375 204.496094 70.023438 C 205.6875 68.683594 206.988281 67.394531 208.351562 66.230469 C 209.570312 65.191406 210.976562 64.378906 212.15625 63.300781 C 213.21875 62.347656 213.996094 60.976562 213.582031 59.507812 C 213.160156 58.019531 211.871094 57.027344 210.390625 56.738281 C 207.265625 56.136719 203.867188 57.867188 201.714844 60.042969 C 199.742188 62.039062 198.363281 64.558594 197.527344 67.222656 C 197.417969 67.523438 197.304688 67.824219 197.207031 68.125 C 189.011719 65.21875 180.5 63.082031 171.875 61.878906 C 172.90625 61.324219 173.914062 60.71875 174.894531 60.074219 C 176.820312 58.792969 179.101562 57.363281 180.402344 55.398438 C 180.6875 54.972656 180.265625 54.300781 179.738281 54.46875 C 177.820312 55.078125 176.050781 56.304688 174.292969 57.25 C 172.304688 58.320312 170.453125 59.613281 168.398438 60.621094 C 166.253906 61.683594 164.042969 62.609375 161.785156 63.398438 C 157.3125 64.957031 152.664062 65.980469 147.953125 66.425781 C 142.46875 66.9375 136.90625 66.65625 131.496094 65.613281 C 128.761719 65.085938 126.0625 64.371094 123.433594 63.453125 C 122.390625 63.082031 121.945312 62.675781 121.179688 61.941406 C 120.871094 61.644531 120.484375 61.171875 120.011719 61.433594 C 119.679688 61.625 119.613281 62.046875 119.859375 62.324219 C 121.199219 63.84375 122.617188 65.117188 124.429688 66.046875 C 123.132812 66.449219 122.140625 66.792969 121.710938 67.019531 C 120.175781 67.546875 118.625 68.050781 117.144531 68.71875 C 117.046875 68.765625 116.957031 68.808594 116.859375 68.863281 C 116.894531 68.839844 117.023438 68.800781 117.113281 68.773438 C 116.664062 68.921875 116.257812 69.195312 115.894531 69.511719 C 114.277344 67.539062 112.410156 65.769531 110.109375 64.625 C 108.65625 63.902344 106.835938 63.152344 105.21875 63.8125 C 103.675781 64.445312 103.214844 66.054688 103.378906 67.589844 C 103.539062 69.066406 104.230469 70.503906 104.914062 71.804688 C 105.691406 73.296875 106.667969 74.695312 107.902344 75.847656 C 109.25 77.101562 110.847656 78.042969 112.652344 78.457031 C 114.21875 78.8125 116.210938 78.902344 117.609375 77.984375 C 117.800781 78.300781 117.972656 78.609375 118.109375 78.886719 C 118.542969 79.699219 118.890625 80.347656 119.167969 80.949219 C 118.527344 81.183594 117.835938 81.308594 117.191406 81.445312 C 115.585938 81.695312 113.871094 81.777344 112.125 81.503906 C 105.945312 80.609375 100.507812 77.871094 96.652344 72.761719 C 94.800781 70.21875 93.53125 67.15625 93.703125 63.503906 C 93.710938 57.582031 96.195312 52.667969 99.804688 51.488281 C 103.117188 50.464844 104.449219 50.578125 107.925781 50.660156 C 107.984375 50.667969 108.03125 50.667969 108.070312 50.675781 C 109.304688 50.945312 110.6875 51.410156 111.742188 50.457031 C 112.691406 49.597656 112.523438 48.199219 112.636719 47.039062 C 113.554688 27.65625 126.542969 17.617188 144.640625 16.523438 C 150.058594 16.464844 154.394531 17.601562 158.625 19.789062 C 162.46875 21.800781 164.5625 23.394531 167.308594 27.097656 C 168.046875 28.0625 168.675781 29.203125 169.195312 30.425781 C 168.519531 31.25 167.894531 32.132812 167.359375 33.082031 C 165.929688 35.75 164.757812 39.070312 165.921875 42.042969 C 166.457031 43.839844 168.367188 45.347656 170.28125 44.804688 C 172.003906 44.316406 172.882812 42.675781 173.464844 41.109375 C 174.359375 38.46875 174.058594 35.554688 173.472656 32.878906 C 173.335938 32.273438 173.167969 31.679688 172.980469 31.09375 C 176.238281 27.84375 180.9375 25.734375 186.097656 25.074219 C 193.75 24.074219 201.359375 27.949219 204.054688 34.984375 C 205.363281 38.617188 204.265625 44.023438 203.367188 46.492188 C 203.15625 47.003906 202.691406 47.414062 202.632812 47.980469 C 202.351562 49.09375 203.558594 50.09375 204.625 49.824219 C 205.574219 49.523438 206.191406 48.621094 207.035156 48.117188 C 206.304688 48.613281 207.273438 47.941406 207.574219 47.769531 C 209.367188 46.632812 210.390625 46.25 211.675781 45.949219 C 215.746094 45.039062 218.878906 46.617188 220.933594 50.222656 C 223.402344 54.941406 222.695312 60.75 219.308594 65.621094 Z M 117.210938 77.335938 C 115.949219 77.410156 114.78125 77.53125 113.507812 77.179688 C 112.179688 76.808594 110.921875 76.101562 109.890625 75.183594 C 107.941406 73.453125 106.445312 70.863281 105.730469 68.359375 C 105.546875 67.726562 105.179688 66.28125 106 65.914062 C 106.488281 65.695312 107.1875 66.027344 107.625 66.230469 C 108.257812 66.53125 108.859375 66.914062 109.421875 67.328125 C 111.621094 68.9375 113.382812 71.308594 114.894531 73.550781 C 115.113281 73.882812 115.324219 74.214844 115.535156 74.542969 C 116.023438 75.507812 116.664062 76.464844 117.210938 77.335938 Z M 117.210938 77.335938 " fill-opacity="1" fill-rule="nonzero"/></g><path fill="#e3732e" d="M 154.589844 60.515625 C 151.054688 61.277344 147.433594 61.527344 143.820312 61.546875 C 140.441406 61.578125 137.085938 61.195312 133.828125 60.300781 C 128.046875 58.71875 122.699219 55.386719 119.792969 49.996094 C 119.019531 48.558594 118.445312 47.046875 117.988281 45.480469 C 117.753906 44.691406 117.601562 43.863281 117.339844 43.082031 C 117.191406 42.628906 117.25 41.570312 116.671875 41.546875 C 116.144531 41.523438 115.933594 42.328125 115.835938 42.710938 C 115.648438 43.503906 115.535156 44.234375 115.5625 45.054688 C 115.617188 46.671875 116.023438 48.296875 116.617188 49.800781 C 117.820312 52.871094 119.882812 55.695312 122.417969 57.792969 C 127.90625 62.332031 134.964844 64.121094 141.992188 63.730469 C 146.378906 63.480469 150.550781 62.308594 154.753906 61.121094 C 155.148438 61.015625 154.980469 60.433594 154.589844 60.515625 Z M 154.589844 60.515625 " fill-opacity="1" fill-rule="nonzero"/><path fill="#e3732e" d="M 186.609375 50.480469 C 186.113281 50.410156 185.660156 50.394531 185.164062 50.515625 C 184.734375 50.621094 184.308594 50.773438 183.910156 50.96875 C 183.507812 51.164062 183.140625 51.390625 182.792969 51.660156 C 182.660156 51.765625 182.515625 51.878906 182.402344 52.007812 C 182.296875 52.132812 182.175781 52.253906 182.101562 52.398438 C 181.988281 52.59375 181.953125 52.789062 181.921875 53.007812 C 181.898438 53.269531 181.929688 53.496094 182.101562 53.714844 C 182.277344 53.941406 182.546875 54.097656 182.839844 54.082031 C 183.164062 54.066406 183.410156 54.015625 183.707031 53.871094 C 183.863281 53.796875 184.015625 53.699219 184.164062 53.609375 C 184.457031 53.429688 184.742188 53.242188 185.042969 53.074219 C 185.640625 52.757812 186.265625 52.480469 186.835938 52.121094 C 187.144531 51.921875 187.316406 51.585938 187.265625 51.222656 C 187.21875 50.914062 186.957031 50.523438 186.609375 50.480469 Z M 186.609375 50.480469 " fill-opacity="1" fill-rule="nonzero"/><path fill="#e3732e" d="M 181.914062 53.074219 C 181.914062 53.050781 181.921875 53.039062 181.921875 53.015625 C 181.921875 52.992188 181.921875 52.976562 181.929688 52.953125 C 181.921875 52.992188 181.914062 53.03125 181.914062 53.074219 Z M 181.914062 53.074219 " fill-opacity="1" fill-rule="nonzero"/><path fill="#e3732e" d="M 181.929688 52.902344 C 181.929688 52.917969 181.929688 52.933594 181.921875 52.953125 C 181.929688 52.902344 181.9375 52.855469 181.945312 52.804688 C 181.945312 52.835938 181.9375 52.863281 181.929688 52.902344 Z M 181.929688 52.902344 " fill-opacity="1" fill-rule="nonzero"/><g clip-path="url(#41eb768758)"><g clip-path="url(#89c5ae30e5)"><g clip-path="url(#8c0ee0522a)"><g clip-path="url(#639e15fee6)"><g clip-path="url(#7883055170)"><path fill="#1f191a" d="M 90.425781 174.320312 C 99.757812 178.636719 151.117188 199.765625 206.335938 170.53125 C 207.714844 169.800781 209.421875 170.261719 210.238281 171.59375 C 210.980469 172.8125 210.746094 174.382812 209.683594 175.332031 C 199.402344 184.46875 146.835938 225.953125 89.253906 176.140625 C 89.007812 175.925781 88.867188 175.613281 88.875 175.285156 C 88.898438 174.5 89.714844 173.992188 90.425781 174.320312 " fill-opacity="1" fill-rule="nonzero"/></g></g></g></g></g><g clip-path="url(#3061e3eab1)"><g clip-path="url(#fdc85c4c2a)"><g clip-path="url(#4d79997d2e)"><g clip-path="url(#3e3bcd7d68)"><path fill="#ffffff" d="M 100.402344 181.351562 C 100.402344 181.351562 144.347656 200.238281 195.589844 180.363281 C 195.589844 180.363281 153.585938 214.03125 100.402344 181.351562 " fill-opacity="1" fill-rule="nonzero"/></g></g></g></g><g clip-path="url(#270f074959)"><g clip-path="url(#e69cdb5768)"><g clip-path="url(#e90b6b940a)"><g clip-path="url(#5368145491)"><path fill="#1f191a" d="M 85.554688 182.230469 C 86.066406 181.695312 86.023438 180.847656 85.457031 180.375 C 84.078125 179.214844 82.117188 176.917969 83.933594 174.234375 C 85.761719 171.53125 88.269531 171.292969 89.621094 171.390625 C 90.144531 171.429688 90.59375 171.023438 90.605469 170.5 C 90.617188 170.070312 90.332031 169.695312 89.917969 169.585938 C 88.339844 169.175781 84.5 168.617188 82.214844 172.027344 C 80.917969 173.953125 80.539062 176.386719 81.175781 178.625 C 81.554688 179.957031 82.332031 181.414062 83.890625 182.453125 C 84.40625 182.792969 85.101562 182.699219 85.53125 182.253906 L 85.554688 182.230469 " fill-opacity="1" fill-rule="nonzero"/></g></g></g></g><g clip-path="url(#74ece56c3b)"><g clip-path="url(#0c30a82528)"><g clip-path="url(#0a241239b9)"><g clip-path="url(#544c6a0a8d)"><g clip-path="url(#466ec594bb)"><path fill="#1f191a" d="M 205 164.449219 C 205.015625 165.492188 205.902344 166.296875 206.933594 166.207031 C 209.460938 165.988281 213.71875 166.320312 214.589844 170.8125 C 215.464844 175.320312 213.214844 178.054688 211.765625 179.304688 C 211.203125 179.789062 211.152344 180.640625 211.664062 181.183594 C 212.078125 181.621094 212.738281 181.71875 213.257812 181.414062 C 215.300781 180.214844 219.9375 176.753906 218.375 170.710938 C 217.648438 167.890625 215.847656 165.433594 213.355469 163.917969 C 211.617188 162.855469 209.253906 162.023438 206.472656 162.566406 C 205.601562 162.738281 204.980469 163.515625 204.996094 164.40625 L 205 164.449219 " fill-opacity="1" fill-rule="nonzero"/></g></g></g></g></g><g fill="#000000" fill-opacity="1"><g transform="translate(290.546561, 153.542527)"><g><path d="M 12.625 6.09375 C 11.863281 6.09375 11.101562 5.785156 10.34375 5.171875 C 9.59375 4.554688 8.882812 3.921875 8.21875 3.265625 C 7.84375 2.972656 7.488281 2.707031 7.15625 2.46875 C 6.832031 2.238281 6.523438 1.84375 6.234375 1.28125 C 5.765625 0.613281 5.53125 -0.238281 5.53125 -1.28125 C 5.53125 -3.257812 6.097656 -5.265625 7.234375 -7.296875 C 8.367188 -9.328125 9.171875 -11.148438 9.640625 -12.765625 C 10.015625 -13.992188 10.554688 -15.175781 11.265625 -16.3125 C 11.984375 -17.445312 12.671875 -18.578125 13.328125 -19.703125 C 13.515625 -20.085938 13.820312 -20.46875 14.25 -20.84375 C 14.675781 -21.21875 14.984375 -21.597656 15.171875 -21.984375 C 15.546875 -22.359375 15.78125 -22.78125 15.875 -23.25 C 15.96875 -23.726562 16.113281 -24.296875 16.3125 -24.953125 C 16.5 -25.328125 16.707031 -25.65625 16.9375 -25.9375 C 17.175781 -26.226562 17.4375 -26.515625 17.71875 -26.796875 C 18.382812 -27.742188 19.09375 -28.738281 19.84375 -29.78125 C 20.132812 -30.25 20.441406 -30.8125 20.765625 -31.46875 C 21.097656 -32.132812 21.40625 -32.707031 21.6875 -33.1875 C 21.789062 -33.46875 21.984375 -33.796875 22.265625 -34.171875 C 22.546875 -34.546875 22.78125 -34.878906 22.96875 -35.171875 C 23.15625 -35.453125 23.320312 -35.800781 23.46875 -36.21875 C 23.613281 -36.644531 23.78125 -36.957031 23.96875 -37.15625 C 24.25 -37.53125 24.484375 -37.71875 24.671875 -37.71875 C 24.859375 -37.71875 25.140625 -37.859375 25.515625 -38.140625 C 25.710938 -38.328125 26 -38.75 26.375 -39.40625 C 26.75 -40.070312 27.03125 -40.550781 27.21875 -40.84375 C 27.695312 -41.5 28.078125 -42.0625 28.359375 -42.53125 C 28.640625 -43.007812 28.921875 -43.53125 29.203125 -44.09375 C 29.492188 -44.476562 29.753906 -44.832031 29.984375 -45.15625 C 30.222656 -45.488281 30.484375 -45.84375 30.765625 -46.21875 C 31.046875 -46.695312 31.375 -47.21875 31.75 -47.78125 C 32.132812 -48.351562 32.515625 -48.875 32.890625 -49.34375 C 33.554688 -50.476562 33.984375 -51.257812 34.171875 -51.6875 C 34.359375 -52.113281 34.738281 -52.84375 35.3125 -53.875 C 35.40625 -54.164062 35.59375 -54.453125 35.875 -54.734375 C 36.15625 -55.015625 36.390625 -55.25 36.578125 -55.4375 C 36.671875 -55.625 36.789062 -55.90625 36.9375 -56.28125 C 37.082031 -56.664062 37.203125 -56.953125 37.296875 -57.140625 C 37.484375 -57.328125 37.644531 -57.492188 37.78125 -57.640625 C 37.925781 -57.785156 38.046875 -57.953125 38.140625 -58.140625 C 38.328125 -58.234375 38.441406 -58.441406 38.484375 -58.765625 C 38.535156 -59.097656 38.609375 -59.359375 38.703125 -59.546875 C 38.992188 -59.929688 39.300781 -60.238281 39.625 -60.46875 C 39.957031 -60.707031 40.265625 -61.066406 40.546875 -61.546875 C 40.835938 -62.015625 41.238281 -62.484375 41.75 -62.953125 C 42.269531 -63.429688 42.722656 -63.90625 43.109375 -64.375 C 43.859375 -65.320312 44.5625 -66.195312 45.21875 -67 C 45.882812 -67.800781 46.691406 -68.488281 47.640625 -69.0625 C 48.210938 -69.34375 48.6875 -69.484375 49.0625 -69.484375 C 49.914062 -69.484375 50.578125 -69.195312 51.046875 -68.625 C 51.515625 -68.0625 52.035156 -67.398438 52.609375 -66.640625 C 52.984375 -65.984375 53.335938 -65.347656 53.671875 -64.734375 C 54.003906 -64.117188 54.171875 -63.523438 54.171875 -62.953125 C 54.171875 -62.484375 53.976562 -61.894531 53.59375 -61.1875 C 53.21875 -60.476562 52.796875 -59.695312 52.328125 -58.84375 C 51.847656 -57.988281 51.347656 -57.039062 50.828125 -56 C 50.304688 -54.96875 49.8125 -54.117188 49.34375 -53.453125 C 48.582031 -52.410156 47.894531 -51.367188 47.28125 -50.328125 C 46.675781 -49.296875 45.992188 -48.210938 45.234375 -47.078125 C 44.859375 -46.503906 44.476562 -45.910156 44.09375 -45.296875 C 43.71875 -44.679688 43.34375 -44.046875 42.96875 -43.390625 C 42.582031 -42.816406 42.15625 -42.128906 41.6875 -41.328125 C 41.21875 -40.523438 40.984375 -39.984375 40.984375 -39.703125 C 40.984375 -39.140625 41.3125 -38.859375 41.96875 -38.859375 C 42.539062 -38.859375 43.132812 -39 43.75 -39.28125 C 44.363281 -39.5625 44.859375 -39.796875 45.234375 -39.984375 C 46.554688 -40.359375 47.898438 -40.78125 49.265625 -41.25 C 50.640625 -41.726562 51.988281 -42.253906 53.3125 -42.828125 C 54.445312 -43.203125 55.507812 -43.71875 56.5 -44.375 C 57.5 -45.039062 58.566406 -45.5625 59.703125 -45.9375 C 60.929688 -46.414062 62.039062 -46.984375 63.03125 -47.640625 C 64.019531 -48.304688 65.035156 -49.015625 66.078125 -49.765625 C 68.441406 -51.378906 70.445312 -53.128906 72.09375 -55.015625 C 73.75 -56.910156 75.382812 -58.988281 77 -61.25 C 78.601562 -63.519531 79.40625 -66.125 79.40625 -69.0625 C 79.40625 -70.1875 79.210938 -71.289062 78.828125 -72.375 C 78.453125 -73.46875 77.84375 -74.394531 77 -75.15625 C 75.863281 -76 74.679688 -76.632812 73.453125 -77.0625 C 72.222656 -77.488281 70.945312 -77.75 69.625 -77.84375 C 68.394531 -78.03125 67.1875 -78.21875 66 -78.40625 C 64.820312 -78.601562 63.664062 -78.703125 62.53125 -78.703125 C 61.488281 -78.703125 60.28125 -78.554688 58.90625 -78.265625 C 57.539062 -77.984375 56.101562 -77.703125 54.59375 -77.421875 C 53.269531 -77.140625 51.945312 -76.898438 50.625 -76.703125 C 49.300781 -76.515625 48.023438 -76.28125 46.796875 -76 C 45.285156 -75.71875 43.9375 -75.363281 42.75 -74.9375 C 41.570312 -74.507812 40.320312 -74.0625 39 -73.59375 C 37.570312 -73.125 36.148438 -72.554688 34.734375 -71.890625 C 33.316406 -71.222656 31.898438 -70.5625 30.484375 -69.90625 C 29.734375 -69.53125 28.90625 -69.007812 28 -68.34375 C 27.101562 -67.6875 26.226562 -67.117188 25.375 -66.640625 C 24.71875 -66.265625 24.101562 -65.929688 23.53125 -65.640625 C 22.96875 -65.359375 22.40625 -64.984375 21.84375 -64.515625 C 20.132812 -63.097656 18.953125 -61.679688 18.296875 -60.265625 C 18.003906 -59.691406 17.859375 -59.171875 17.859375 -58.703125 C 17.859375 -58.328125 17.957031 -58 18.15625 -57.71875 C 18.34375 -57.332031 18.671875 -56.972656 19.140625 -56.640625 C 19.609375 -56.316406 19.84375 -55.773438 19.84375 -55.015625 C 19.84375 -54.640625 19.75 -54.238281 19.5625 -53.8125 C 19.375 -53.382812 19 -53.171875 18.4375 -53.171875 C 17.863281 -53.171875 17.316406 -53.40625 16.796875 -53.875 C 16.273438 -54.351562 15.828125 -54.734375 15.453125 -55.015625 C 14.597656 -55.679688 13.722656 -56.367188 12.828125 -57.078125 C 11.929688 -57.785156 11.25 -58.660156 10.78125 -59.703125 C 10.300781 -60.828125 10.0625 -61.863281 10.0625 -62.8125 C 10.0625 -63.664062 10.179688 -64.445312 10.421875 -65.15625 C 10.660156 -65.863281 10.921875 -66.597656 11.203125 -67.359375 C 11.484375 -67.828125 11.765625 -68.296875 12.046875 -68.765625 C 12.335938 -69.242188 12.625 -69.71875 12.90625 -70.1875 C 13.28125 -70.5625 13.609375 -71.03125 13.890625 -71.59375 C 14.179688 -72.164062 14.5625 -72.644531 15.03125 -73.03125 C 15.40625 -73.3125 15.757812 -73.519531 16.09375 -73.65625 C 16.425781 -73.800781 16.734375 -74.015625 17.015625 -74.296875 C 17.390625 -74.679688 17.789062 -74.988281 18.21875 -75.21875 C 18.644531 -75.457031 19 -75.765625 19.28125 -76.140625 C 19.5625 -76.328125 19.773438 -76.632812 19.921875 -77.0625 C 20.066406 -77.488281 20.28125 -77.796875 20.5625 -77.984375 C 20.9375 -78.265625 21.359375 -78.40625 21.828125 -78.40625 C 22.304688 -78.40625 22.78125 -78.503906 23.25 -78.703125 C 24.101562 -79.078125 24.90625 -79.5 25.65625 -79.96875 C 26.414062 -80.445312 27.222656 -80.921875 28.078125 -81.390625 C 29.117188 -81.953125 29.875 -82.613281 30.34375 -83.375 C 30.625 -83.65625 30.882812 -83.960938 31.125 -84.296875 C 31.363281 -84.628906 31.8125 -84.84375 32.46875 -84.9375 C 33.039062 -85.03125 33.488281 -85.097656 33.8125 -85.140625 C 34.144531 -85.191406 34.597656 -85.359375 35.171875 -85.640625 C 35.734375 -85.828125 36.34375 -85.992188 37 -86.140625 C 37.664062 -86.285156 38.332031 -86.40625 39 -86.5 C 39.65625 -86.6875 40.3125 -86.828125 40.96875 -86.921875 C 41.632812 -87.015625 42.300781 -87.15625 42.96875 -87.34375 C 43.53125 -87.53125 44.023438 -87.742188 44.453125 -87.984375 C 44.878906 -88.222656 45.328125 -88.390625 45.796875 -88.484375 C 46.929688 -88.859375 48.066406 -89.113281 49.203125 -89.25 C 50.335938 -89.394531 51.472656 -89.613281 52.609375 -89.90625 C 53.453125 -90.09375 54.113281 -90.1875 54.59375 -90.1875 C 55.0625 -90.1875 55.507812 -90.113281 55.9375 -89.96875 C 56.363281 -89.820312 56.8125 -89.75 57.28125 -89.75 C 57.664062 -89.75 58 -89.796875 58.28125 -89.890625 C 58.5625 -89.992188 58.890625 -90.046875 59.265625 -90.046875 C 59.648438 -90.140625 60.078125 -90.207031 60.546875 -90.25 C 61.015625 -90.300781 61.488281 -90.328125 61.96875 -90.328125 C 62.625 -90.328125 63.117188 -90.226562 63.453125 -90.03125 C 63.785156 -89.84375 64.140625 -89.75 64.515625 -89.75 C 64.609375 -89.75 64.703125 -89.75 64.796875 -89.75 C 65.078125 -89.75 65.3125 -89.773438 65.5 -89.828125 C 65.695312 -89.878906 65.984375 -89.90625 66.359375 -89.90625 C 66.640625 -89.90625 66.972656 -89.804688 67.359375 -89.609375 C 67.734375 -89.515625 68.082031 -89.347656 68.40625 -89.109375 C 68.738281 -88.878906 69.097656 -88.765625 69.484375 -88.765625 C 70.140625 -88.578125 70.65625 -88.503906 71.03125 -88.546875 C 71.414062 -88.597656 71.890625 -88.4375 72.453125 -88.0625 C 73.585938 -87.300781 74.722656 -86.6875 75.859375 -86.21875 C 77.753906 -85.269531 79.765625 -83.800781 81.890625 -81.8125 C 84.015625 -79.832031 85.503906 -77.753906 86.359375 -75.578125 C 87.015625 -74.066406 87.507812 -72.484375 87.84375 -70.828125 C 88.175781 -69.171875 88.34375 -67.632812 88.34375 -66.21875 C 88.34375 -62.625 87.65625 -59.21875 86.28125 -56 C 84.914062 -52.789062 83.050781 -49.816406 80.6875 -47.078125 C 78.882812 -44.898438 76.847656 -43.03125 74.578125 -41.46875 C 72.316406 -39.914062 70.050781 -38.332031 67.78125 -36.71875 C 65.601562 -35.207031 63.285156 -34.078125 60.828125 -33.328125 C 59.691406 -32.941406 58.628906 -32.460938 57.640625 -31.890625 C 56.648438 -31.328125 55.632812 -30.859375 54.59375 -30.484375 C 53.644531 -30.109375 52.507812 -29.734375 51.1875 -29.359375 C 50.625 -29.160156 49.84375 -28.988281 48.84375 -28.84375 C 47.851562 -28.707031 47.078125 -28.5 46.515625 -28.21875 C 46.128906 -28.03125 45.9375 -27.84375 45.9375 -27.65625 C 45.9375 -27.5625 46.03125 -27.226562 46.21875 -26.65625 C 46.507812 -25.894531 46.84375 -25.132812 47.21875 -24.375 C 47.59375 -23.625 47.972656 -22.875 48.359375 -22.125 C 48.921875 -20.707031 49.695312 -19.332031 50.6875 -18 C 51.6875 -16.675781 52.609375 -15.453125 53.453125 -14.328125 C 54.023438 -13.472656 54.546875 -12.664062 55.015625 -11.90625 C 55.484375 -11.15625 56.144531 -10.398438 57 -9.640625 C 58.320312 -8.503906 59.785156 -7.9375 61.390625 -7.9375 C 62.054688 -7.9375 62.816406 -8.03125 63.671875 -8.21875 C 63.953125 -8.3125 64.207031 -8.40625 64.4375 -8.5 C 64.675781 -8.601562 64.890625 -8.65625 65.078125 -8.65625 C 66.023438 -8.65625 66.5 -8.085938 66.5 -6.953125 C 66.5 -6.003906 66.125 -5.148438 65.375 -4.390625 C 64.613281 -3.453125 63.898438 -2.554688 63.234375 -1.703125 C 62.578125 -0.847656 61.820312 -0.046875 60.96875 0.703125 C 60.125 1.460938 59.179688 2.078125 58.140625 2.546875 C 57.097656 3.023438 56.007812 3.265625 54.875 3.265625 C 54.113281 3.265625 52.859375 2.957031 51.109375 2.34375 C 49.367188 1.726562 48.070312 0.992188 47.21875 0.140625 C 46.84375 -0.234375 46.535156 -0.632812 46.296875 -1.0625 C 46.054688 -1.488281 45.75 -1.890625 45.375 -2.265625 C 45 -2.640625 44.597656 -2.992188 44.171875 -3.328125 C 43.742188 -3.660156 43.390625 -4.0625 43.109375 -4.53125 C 42.828125 -5.007812 42.660156 -5.457031 42.609375 -5.875 C 42.554688 -6.300781 42.4375 -6.753906 42.25 -7.234375 C 42.15625 -7.609375 41.921875 -7.984375 41.546875 -8.359375 C 41.171875 -8.742188 40.890625 -9.125 40.703125 -9.5 C 40.410156 -9.96875 40.050781 -10.296875 39.625 -10.484375 C 39.207031 -10.679688 38.804688 -11.015625 38.421875 -11.484375 C 38.046875 -11.859375 37.8125 -12.351562 37.71875 -12.96875 C 37.625 -13.582031 37.484375 -14.175781 37.296875 -14.75 C 37.203125 -15.03125 37.082031 -15.21875 36.9375 -15.3125 C 36.789062 -15.40625 36.71875 -15.546875 36.71875 -15.734375 C 36.71875 -16.023438 36.765625 -16.265625 36.859375 -16.453125 C 36.960938 -16.640625 37.015625 -16.828125 37.015625 -17.015625 C 37.015625 -17.390625 36.914062 -17.789062 36.71875 -18.21875 C 36.53125 -18.644531 36.296875 -18.859375 36.015625 -18.859375 C 35.734375 -18.859375 35.640625 -18.523438 35.734375 -17.859375 C 35.828125 -17.203125 35.734375 -16.875 35.453125 -16.875 C 35.066406 -16.875 34.875 -17.347656 34.875 -18.296875 C 34.875 -18.953125 34.925781 -19.566406 35.03125 -20.140625 C 35.03125 -20.328125 35.050781 -20.535156 35.09375 -20.765625 C 35.144531 -21.003906 35.171875 -21.265625 35.171875 -21.546875 C 35.171875 -22.023438 35.070312 -22.285156 34.875 -22.328125 C 34.6875 -22.378906 34.5 -22.5 34.3125 -22.6875 C 33.9375 -23.15625 33.75 -23.816406 33.75 -24.671875 C 33.75 -25.046875 33.769531 -25.328125 33.8125 -25.515625 C 33.863281 -25.710938 33.890625 -25.953125 33.890625 -26.234375 C 33.890625 -26.796875 33.65625 -27.078125 33.1875 -27.078125 C 32.800781 -27.078125 32.347656 -26.675781 31.828125 -25.875 C 31.304688 -25.070312 30.953125 -24.53125 30.765625 -24.25 C 30.109375 -23.207031 29.398438 -22.140625 28.640625 -21.046875 C 27.890625 -19.960938 27.273438 -18.851562 26.796875 -17.71875 C 26.234375 -16.488281 25.523438 -15.332031 24.671875 -14.25 C 23.816406 -13.164062 23.0625 -12.007812 22.40625 -10.78125 C 22.125 -10.300781 21.882812 -9.753906 21.6875 -9.140625 C 21.5 -8.523438 21.21875 -7.9375 20.84375 -7.375 C 20.5625 -6.90625 20.320312 -6.429688 20.125 -5.953125 C 19.9375 -5.484375 19.703125 -5.007812 19.421875 -4.53125 C 19.046875 -3.96875 18.765625 -3.378906 18.578125 -2.765625 C 18.390625 -2.148438 18.203125 -1.5625 18.015625 -1 C 17.722656 -0.425781 17.410156 0.046875 17.078125 0.421875 C 16.753906 0.804688 16.453125 1.28125 16.171875 1.84375 C 15.597656 2.695312 15.171875 3.59375 14.890625 4.53125 C 14.609375 5.476562 13.851562 6 12.625 6.09375 Z M 12.625 6.09375 "/></g></g></g><g fill="#000000" fill-opacity="1"><g transform="translate(358.610715, 153.542527)"><g><path d="M 20.28125 -0.140625 C 18.769531 -0.140625 17.253906 -0.328125 15.734375 -0.703125 C 14.984375 -0.898438 14.226562 -1.1875 13.46875 -1.5625 C 12.71875 -1.9375 12.054688 -2.457031 11.484375 -3.125 C 11.203125 -3.40625 11.015625 -3.707031 10.921875 -4.03125 C 10.828125 -4.363281 10.6875 -4.722656 10.5 -5.109375 C 10.300781 -5.484375 10.015625 -5.71875 9.640625 -5.8125 C 9.265625 -5.90625 8.984375 -6.140625 8.796875 -6.515625 C 8.597656 -6.804688 8.472656 -7.160156 8.421875 -7.578125 C 8.378906 -8.003906 8.359375 -8.410156 8.359375 -8.796875 C 8.265625 -9.078125 8.21875 -9.3125 8.21875 -9.5 C 8.21875 -9.6875 8.125 -9.875 7.9375 -10.0625 C 7.75 -10.351562 7.5625 -10.59375 7.375 -10.78125 C 7.1875 -10.96875 7.09375 -11.203125 7.09375 -11.484375 C 7.09375 -11.859375 7.140625 -12.1875 7.234375 -12.46875 C 7.328125 -12.757812 7.375 -13.09375 7.375 -13.46875 C 7.375 -13.9375 7.347656 -14.382812 7.296875 -14.8125 C 7.253906 -15.238281 7.234375 -15.59375 7.234375 -15.875 C 7.234375 -16.164062 7.234375 -16.453125 7.234375 -16.734375 C 7.703125 -18.523438 8.21875 -20.296875 8.78125 -22.046875 C 9.351562 -23.796875 10.160156 -25.425781 11.203125 -26.9375 C 11.859375 -27.882812 12.46875 -28.828125 13.03125 -29.765625 C 13.601562 -30.710938 14.175781 -31.660156 14.75 -32.609375 C 15.40625 -33.554688 16.113281 -34.429688 16.875 -35.234375 C 17.632812 -36.035156 18.34375 -36.910156 19 -37.859375 C 19.5625 -38.617188 20.269531 -39.375 21.125 -40.125 C 21.5 -40.507812 21.921875 -40.84375 22.390625 -41.125 C 22.867188 -41.40625 23.300781 -41.734375 23.6875 -42.109375 C 23.96875 -42.492188 24.203125 -42.847656 24.390625 -43.171875 C 24.578125 -43.503906 24.859375 -43.8125 25.234375 -44.09375 C 25.617188 -44.382812 25.953125 -44.691406 26.234375 -45.015625 C 26.515625 -45.347656 26.84375 -45.609375 27.21875 -45.796875 C 27.601562 -45.984375 28.03125 -46.078125 28.5 -46.078125 C 28.96875 -46.078125 29.441406 -46.125 29.921875 -46.21875 C 30.296875 -46.320312 30.695312 -46.46875 31.125 -46.65625 C 31.550781 -46.84375 31.953125 -47.078125 32.328125 -47.359375 C 33.554688 -48.117188 34.878906 -48.5 36.296875 -48.5 C 36.671875 -48.5 37.070312 -48.445312 37.5 -48.34375 C 37.925781 -48.25 38.378906 -48.15625 38.859375 -48.0625 C 41.023438 -47.6875 42.722656 -46.554688 43.953125 -44.671875 C 44.140625 -44.472656 44.492188 -43.6875 45.015625 -42.3125 C 45.535156 -40.945312 45.796875 -39.796875 45.796875 -38.859375 C 45.796875 -36.960938 45.320312 -35 44.375 -32.96875 C 43.4375 -30.9375 42.398438 -29.210938 41.265625 -27.796875 C 40.035156 -26.085938 38.546875 -24.738281 36.796875 -23.75 C 35.046875 -22.757812 33.273438 -21.835938 31.484375 -20.984375 C 30.535156 -20.609375 29.609375 -20.207031 28.703125 -19.78125 C 27.804688 -19.351562 26.84375 -19.140625 25.8125 -19.140625 C 25.050781 -19.140625 24.195312 -19.425781 23.25 -20 C 22.875 -20.09375 22.472656 -20.300781 22.046875 -20.625 C 21.617188 -20.957031 21.21875 -21.125 20.84375 -21.125 C 20.175781 -21.125 19.535156 -20.648438 18.921875 -19.703125 C 18.316406 -18.765625 17.914062 -17.960938 17.71875 -17.296875 C 17.53125 -16.734375 17.34375 -16.097656 17.15625 -15.390625 C 16.96875 -14.679688 16.875 -13.992188 16.875 -13.328125 C 16.875 -13.046875 16.96875 -12.617188 17.15625 -12.046875 C 17.34375 -11.484375 17.484375 -11.109375 17.578125 -10.921875 C 18.148438 -9.878906 19.191406 -9.359375 20.703125 -9.359375 C 22.304688 -9.359375 23.628906 -9.617188 24.671875 -10.140625 C 25.710938 -10.660156 26.707031 -11.109375 27.65625 -11.484375 C 31.238281 -13.179688 34.546875 -15.210938 37.578125 -17.578125 C 38.523438 -18.335938 39.421875 -19.046875 40.265625 -19.703125 C 41.117188 -20.367188 41.925781 -21.082031 42.6875 -21.84375 C 43.4375 -22.5 44.164062 -23.179688 44.875 -23.890625 C 45.582031 -24.597656 46.269531 -25.332031 46.9375 -26.09375 C 47.6875 -26.75 48.414062 -27.429688 49.125 -28.140625 C 49.84375 -28.847656 50.53125 -29.535156 51.1875 -30.203125 C 51.851562 -30.859375 52.5625 -31.613281 53.3125 -32.46875 C 53.6875 -32.84375 54.0625 -33.289062 54.4375 -33.8125 C 54.820312 -34.332031 55.25 -34.59375 55.71875 -34.59375 C 56.289062 -34.59375 56.578125 -34.023438 56.578125 -32.890625 C 56.578125 -32.421875 56.503906 -31.925781 56.359375 -31.40625 C 56.222656 -30.882812 56.15625 -30.53125 56.15625 -30.34375 C 56.0625 -29.300781 55.941406 -28.351562 55.796875 -27.5 C 55.648438 -26.65625 55.296875 -25.804688 54.734375 -24.953125 C 53.597656 -23.441406 52.390625 -21.90625 51.109375 -20.34375 C 49.835938 -18.789062 48.539062 -17.347656 47.21875 -16.015625 C 45.707031 -14.597656 44.171875 -13.203125 42.609375 -11.828125 C 41.046875 -10.460938 39.507812 -9.117188 38 -7.796875 C 36.394531 -6.566406 34.71875 -5.429688 32.96875 -4.390625 C 31.21875 -3.347656 29.398438 -2.453125 27.515625 -1.703125 C 25.148438 -0.660156 22.738281 -0.140625 20.28125 -0.140625 Z M 25.375 -26.234375 C 26.507812 -26.234375 28.070312 -26.847656 30.0625 -28.078125 C 31.570312 -29.023438 32.707031 -30.160156 33.46875 -31.484375 C 34.40625 -32.898438 35.253906 -34.363281 36.015625 -35.875 C 36.203125 -36.15625 36.4375 -36.578125 36.71875 -37.140625 C 37.007812 -37.710938 37.15625 -38.234375 37.15625 -38.703125 C 37.15625 -39.179688 36.914062 -39.421875 36.4375 -39.421875 C 35.78125 -39.421875 35.046875 -39.113281 34.234375 -38.5 C 33.429688 -37.882812 32.84375 -37.335938 32.46875 -36.859375 C 31.8125 -36.203125 31.222656 -35.566406 30.703125 -34.953125 C 30.179688 -34.335938 29.585938 -33.75 28.921875 -33.1875 C 27.785156 -32.332031 26.84375 -31.195312 26.09375 -29.78125 C 26 -29.59375 25.757812 -29.164062 25.375 -28.5 C 25 -27.84375 24.8125 -27.273438 24.8125 -26.796875 C 24.8125 -26.421875 25 -26.234375 25.375 -26.234375 Z M 25.375 -26.234375 "/></g></g></g><g fill="#000000" fill-opacity="1"><g transform="translate(396.045984, 153.542527)"><g><path d="M 19 0 C 17.863281 0 17.007812 -0.113281 16.4375 -0.34375 C 15.875 -0.582031 15.265625 -0.847656 14.609375 -1.140625 C 14.222656 -1.234375 13.796875 -1.328125 13.328125 -1.421875 C 12.859375 -1.515625 12.53125 -1.703125 12.34375 -1.984375 C 11.957031 -2.265625 11.71875 -2.664062 11.625 -3.1875 C 11.53125 -3.707031 11.390625 -4.15625 11.203125 -4.53125 C 11.015625 -4.820312 10.632812 -5.0625 10.0625 -5.25 C 9.5 -5.4375 9.078125 -5.765625 8.796875 -6.234375 C 8.703125 -6.421875 8.65625 -6.609375 8.65625 -6.796875 C 8.65625 -6.992188 8.601562 -7.234375 8.5 -7.515625 C 8.40625 -7.796875 8.3125 -8.003906 8.21875 -8.140625 C 8.125 -8.285156 8.078125 -8.457031 8.078125 -8.65625 C 8.078125 -8.84375 8.097656 -8.984375 8.140625 -9.078125 C 8.191406 -9.171875 8.21875 -9.265625 8.21875 -9.359375 C 8.21875 -9.640625 8.050781 -9.945312 7.71875 -10.28125 C 7.394531 -10.613281 7.1875 -10.96875 7.09375 -11.34375 C 6.90625 -11.71875 6.8125 -12.070312 6.8125 -12.40625 C 6.8125 -12.738281 6.8125 -13.09375 6.8125 -13.46875 C 6.8125 -13.84375 6.859375 -14.316406 6.953125 -14.890625 C 7.140625 -15.929688 7.328125 -16.875 7.515625 -17.71875 C 7.703125 -18.570312 7.890625 -19.519531 8.078125 -20.5625 C 8.265625 -21.507812 8.738281 -22.125 9.5 -22.40625 C 9.875 -22.5 10.203125 -22.59375 10.484375 -22.6875 C 10.773438 -22.78125 10.921875 -23.015625 10.921875 -23.390625 C 10.921875 -23.679688 10.847656 -23.875 10.703125 -23.96875 C 10.566406 -24.0625 10.5 -24.203125 10.5 -24.390625 C 10.5 -24.578125 10.546875 -24.785156 10.640625 -25.015625 C 10.734375 -25.253906 10.828125 -25.421875 10.921875 -25.515625 C 11.109375 -25.804688 11.222656 -26.113281 11.265625 -26.4375 C 11.316406 -26.769531 11.4375 -27.128906 11.625 -27.515625 C 12 -28.453125 12.46875 -29.460938 13.03125 -30.546875 C 13.601562 -31.640625 14.222656 -32.566406 14.890625 -33.328125 C 15.546875 -33.890625 16.15625 -34.5 16.71875 -35.15625 C 17.289062 -35.820312 17.863281 -36.488281 18.4375 -37.15625 C 19 -37.8125 19.585938 -38.492188 20.203125 -39.203125 C 20.816406 -39.910156 21.457031 -40.597656 22.125 -41.265625 C 22.5 -41.640625 22.898438 -41.941406 23.328125 -42.171875 C 23.753906 -42.410156 24.203125 -42.675781 24.671875 -42.96875 C 25.140625 -43.25 25.585938 -43.601562 26.015625 -44.03125 C 26.441406 -44.457031 26.890625 -44.859375 27.359375 -45.234375 C 27.835938 -45.421875 28.3125 -45.628906 28.78125 -45.859375 C 29.257812 -46.097656 29.734375 -46.316406 30.203125 -46.515625 C 30.765625 -46.703125 31.398438 -46.957031 32.109375 -47.28125 C 32.828125 -47.613281 33.515625 -47.828125 34.171875 -47.921875 C 34.546875 -47.921875 34.945312 -47.828125 35.375 -47.640625 C 35.800781 -47.453125 36.203125 -47.359375 36.578125 -47.359375 C 37.335938 -47.265625 37.976562 -47.191406 38.5 -47.140625 C 39.019531 -47.097656 39.609375 -46.890625 40.265625 -46.515625 C 42.066406 -45.378906 43.582031 -43.722656 44.8125 -41.546875 C 45.1875 -40.785156 45.375 -40.03125 45.375 -39.28125 C 45.375 -37.957031 45.09375 -36.726562 44.53125 -35.59375 C 43.957031 -34.457031 43.410156 -33.488281 42.890625 -32.6875 C 42.367188 -31.882812 41.640625 -31.054688 40.703125 -30.203125 C 40.222656 -29.640625 39.722656 -29.117188 39.203125 -28.640625 C 38.679688 -28.171875 38.09375 -27.742188 37.4375 -27.359375 C 36.957031 -27.078125 36.410156 -26.84375 35.796875 -26.65625 C 35.179688 -26.46875 34.59375 -26.328125 34.03125 -26.234375 C 33.75 -26.140625 33.414062 -26.09375 33.03125 -26.09375 C 32.28125 -26.09375 31.503906 -26.234375 30.703125 -26.515625 C 29.898438 -26.796875 29.5 -27.269531 29.5 -27.9375 C 29.5 -28.3125 29.640625 -28.6875 29.921875 -29.0625 C 30.203125 -29.632812 30.601562 -30.109375 31.125 -30.484375 C 31.644531 -30.859375 32.140625 -31.285156 32.609375 -31.765625 C 33.460938 -32.710938 34.171875 -33.65625 34.734375 -34.59375 C 34.828125 -34.78125 35.039062 -35.226562 35.375 -35.9375 C 35.707031 -36.65625 35.875 -37.296875 35.875 -37.859375 C 35.875 -38.421875 35.6875 -38.703125 35.3125 -38.703125 C 35.019531 -38.703125 34.640625 -38.5625 34.171875 -38.28125 C 33.703125 -38 33.375 -37.8125 33.1875 -37.71875 C 32.332031 -37.34375 31.570312 -36.726562 30.90625 -35.875 C 30.625 -35.3125 30.269531 -34.816406 29.84375 -34.390625 C 29.414062 -33.960938 29.015625 -33.5625 28.640625 -33.1875 C 27.691406 -32.144531 26.789062 -31.148438 25.9375 -30.203125 C 25.09375 -29.253906 24.289062 -28.210938 23.53125 -27.078125 C 22.875 -26.234375 22.238281 -25.335938 21.625 -24.390625 C 21.007812 -23.441406 20.414062 -22.492188 19.84375 -21.546875 C 19.5625 -21.078125 19.328125 -20.507812 19.140625 -19.84375 C 18.953125 -19.1875 18.765625 -18.578125 18.578125 -18.015625 C 18.296875 -17.160156 18.035156 -16.378906 17.796875 -15.671875 C 17.554688 -14.960938 17.4375 -14.132812 17.4375 -13.1875 C 17.4375 -10.726562 18.710938 -9.5 21.265625 -9.5 C 22.304688 -9.5 23.394531 -9.664062 24.53125 -10 C 25.664062 -10.332031 26.660156 -10.640625 27.515625 -10.921875 C 28.359375 -11.296875 29.253906 -11.765625 30.203125 -12.328125 C 31.148438 -12.898438 32.046875 -13.421875 32.890625 -13.890625 C 34.117188 -14.460938 35.207031 -15.171875 36.15625 -16.015625 C 37.101562 -16.867188 38.097656 -17.722656 39.140625 -18.578125 C 40.929688 -20.085938 42.65625 -21.671875 44.3125 -23.328125 C 45.96875 -24.984375 47.691406 -26.660156 49.484375 -28.359375 C 50.148438 -29.023438 50.8125 -29.710938 51.46875 -30.421875 C 52.132812 -31.128906 52.75 -31.859375 53.3125 -32.609375 C 53.5 -32.796875 53.664062 -33.03125 53.8125 -33.3125 C 53.957031 -33.601562 54.125 -33.75 54.3125 -33.75 C 54.78125 -33.84375 55.109375 -33.390625 55.296875 -32.390625 C 55.484375 -31.398438 55.578125 -30.671875 55.578125 -30.203125 C 55.578125 -29.640625 55.457031 -29.144531 55.21875 -28.71875 C 54.988281 -28.289062 54.78125 -27.835938 54.59375 -27.359375 C 54.40625 -26.890625 54.285156 -26.441406 54.234375 -26.015625 C 54.191406 -25.585938 54.023438 -25.1875 53.734375 -24.8125 C 53.453125 -24.34375 53.144531 -23.914062 52.8125 -23.53125 C 52.488281 -23.15625 52.234375 -22.734375 52.046875 -22.265625 C 51.566406 -21.316406 50.804688 -20.320312 49.765625 -19.28125 C 49.109375 -18.625 48.445312 -17.941406 47.78125 -17.234375 C 47.125 -16.523438 46.507812 -15.742188 45.9375 -14.890625 C 45.28125 -14.128906 44.523438 -13.488281 43.671875 -12.96875 C 42.816406 -12.445312 42.0625 -11.859375 41.40625 -11.203125 C 40.644531 -10.441406 39.910156 -9.679688 39.203125 -8.921875 C 38.492188 -8.171875 37.664062 -7.5625 36.71875 -7.09375 C 35.59375 -6.613281 34.53125 -5.992188 33.53125 -5.234375 C 32.539062 -4.484375 31.523438 -3.828125 30.484375 -3.265625 C 29.628906 -2.691406 28.707031 -2.285156 27.71875 -2.046875 C 26.726562 -1.816406 25.757812 -1.515625 24.8125 -1.140625 C 23.113281 -0.378906 21.175781 0 19 0 Z M 19 0 "/></g></g></g><g fill="#000000" fill-opacity="1"><g transform="translate(433.481252, 153.542527)"><g><path d="M 40.546875 -59.84375 C 39.128906 -59.84375 37.992188 -60.664062 37.140625 -62.3125 C 36.296875 -63.96875 35.875 -65.363281 35.875 -66.5 C 35.875 -68.300781 36.460938 -70.050781 37.640625 -71.75 C 38.828125 -73.445312 40.128906 -74.769531 41.546875 -75.71875 C 42.203125 -76.09375 43.050781 -76.46875 44.09375 -76.84375 C 45.132812 -77.226562 46.035156 -77.421875 46.796875 -77.421875 C 47.835938 -77.421875 48.6875 -76.78125 49.34375 -75.5 C 50.007812 -74.226562 50.34375 -73.023438 50.34375 -71.890625 C 50.34375 -70.003906 49.679688 -68.066406 48.359375 -66.078125 C 47.785156 -65.222656 47.144531 -64.367188 46.4375 -63.515625 C 45.726562 -62.671875 44.992188 -61.914062 44.234375 -61.25 C 43.765625 -60.875 43.195312 -60.546875 42.53125 -60.265625 C 41.875 -59.984375 41.210938 -59.84375 40.546875 -59.84375 Z M 14.46875 -0.140625 C 12.945312 -0.140625 11.570312 -0.425781 10.34375 -1 C 9.59375 -1.375 9.003906 -1.867188 8.578125 -2.484375 C 8.148438 -3.097656 7.75 -3.78125 7.375 -4.53125 C 6.332031 -6.519531 5.8125 -8.507812 5.8125 -10.5 C 5.8125 -11.34375 5.90625 -12.191406 6.09375 -13.046875 C 6.28125 -13.898438 6.421875 -14.65625 6.515625 -15.3125 C 6.617188 -16.164062 6.90625 -16.800781 7.375 -17.21875 C 7.84375 -17.644531 8.269531 -18.238281 8.65625 -19 C 8.75 -19.1875 8.9375 -19.515625 9.21875 -19.984375 C 9.5 -20.460938 9.640625 -20.84375 9.640625 -21.125 C 9.640625 -21.40625 9.519531 -21.546875 9.28125 -21.546875 C 9.050781 -21.546875 8.9375 -21.691406 8.9375 -21.984375 C 8.9375 -22.171875 9.050781 -22.378906 9.28125 -22.609375 C 9.519531 -22.847656 9.6875 -23.0625 9.78125 -23.25 C 10.257812 -23.820312 10.734375 -24.578125 11.203125 -25.515625 C 11.578125 -26.179688 11.929688 -26.796875 12.265625 -27.359375 C 12.597656 -27.929688 13 -28.453125 13.46875 -28.921875 C 13.9375 -29.492188 14.265625 -30.085938 14.453125 -30.703125 C 14.648438 -31.316406 14.9375 -31.90625 15.3125 -32.46875 C 15.6875 -33.039062 16.015625 -33.582031 16.296875 -34.09375 C 16.585938 -34.613281 16.921875 -35.160156 17.296875 -35.734375 C 17.671875 -36.296875 18.046875 -36.929688 18.421875 -37.640625 C 18.804688 -38.347656 19.234375 -38.988281 19.703125 -39.5625 C 20.179688 -40.125 20.726562 -40.617188 21.34375 -41.046875 C 21.957031 -41.472656 22.453125 -41.96875 22.828125 -42.53125 C 22.921875 -42.726562 22.988281 -42.921875 23.03125 -43.109375 C 23.082031 -43.296875 23.15625 -43.484375 23.25 -43.671875 C 23.34375 -43.953125 23.53125 -44.234375 23.8125 -44.515625 C 24.101562 -44.804688 24.390625 -45.046875 24.671875 -45.234375 C 25.046875 -45.703125 25.492188 -46.242188 26.015625 -46.859375 C 26.535156 -47.472656 27.128906 -47.78125 27.796875 -47.78125 C 28.171875 -47.78125 28.5 -47.640625 28.78125 -47.359375 C 29.0625 -47.078125 29.300781 -46.84375 29.5 -46.65625 C 29.78125 -46.363281 30.082031 -46.078125 30.40625 -45.796875 C 30.738281 -45.515625 31.050781 -45.234375 31.34375 -44.953125 C 32.09375 -44.191406 32.46875 -43.195312 32.46875 -41.96875 C 32.46875 -40.925781 32.226562 -39.863281 31.75 -38.78125 C 31.28125 -37.695312 30.765625 -36.726562 30.203125 -35.875 C 29.828125 -35.207031 29.398438 -34.539062 28.921875 -33.875 C 28.453125 -33.21875 28.03125 -32.515625 27.65625 -31.765625 C 27.269531 -31.003906 26.910156 -30.269531 26.578125 -29.5625 C 26.253906 -28.851562 25.804688 -28.171875 25.234375 -27.515625 C 25.046875 -27.222656 24.832031 -26.957031 24.59375 -26.71875 C 24.363281 -26.488281 24.15625 -26.234375 23.96875 -25.953125 C 23.78125 -25.566406 23.632812 -25.207031 23.53125 -24.875 C 23.4375 -24.550781 23.296875 -24.203125 23.109375 -23.828125 C 22.734375 -23.253906 22.285156 -22.707031 21.765625 -22.1875 C 21.242188 -21.664062 20.796875 -21.078125 20.421875 -20.421875 C 20.035156 -19.753906 19.628906 -19.085938 19.203125 -18.421875 C 18.785156 -17.765625 18.390625 -17.109375 18.015625 -16.453125 C 17.535156 -15.785156 17.109375 -14.742188 16.734375 -13.328125 C 16.359375 -11.910156 16.171875 -11.015625 16.171875 -10.640625 C 16.171875 -9.878906 16.453125 -9.5 17.015625 -9.5 C 17.773438 -9.5 18.71875 -9.898438 19.84375 -10.703125 C 20.976562 -11.503906 21.785156 -12.097656 22.265625 -12.484375 C 23.492188 -13.515625 24.675781 -14.664062 25.8125 -15.9375 C 26.945312 -17.21875 28.078125 -18.519531 29.203125 -19.84375 C 30.335938 -21.070312 31.472656 -22.375 32.609375 -23.75 C 33.742188 -25.125 34.832031 -26.519531 35.875 -27.9375 C 36.4375 -28.59375 37 -29.25 37.5625 -29.90625 C 38.132812 -30.570312 38.707031 -31.285156 39.28125 -32.046875 C 39.65625 -32.515625 40.128906 -33.128906 40.703125 -33.890625 C 41.078125 -34.359375 41.40625 -34.828125 41.6875 -35.296875 C 41.96875 -35.773438 42.300781 -36.015625 42.6875 -36.015625 C 43.25 -36.015625 43.597656 -35.539062 43.734375 -34.59375 C 43.878906 -33.65625 43.953125 -32.945312 43.953125 -32.46875 C 44.046875 -30.863281 43.71875 -29.210938 42.96875 -27.515625 C 42.207031 -25.898438 41.28125 -24.335938 40.1875 -22.828125 C 39.101562 -21.316406 38.046875 -19.898438 37.015625 -18.578125 C 36.441406 -17.816406 35.867188 -17.007812 35.296875 -16.15625 C 34.734375 -15.3125 34.171875 -14.507812 33.609375 -13.75 C 32.941406 -13.09375 32.273438 -12.457031 31.609375 -11.84375 C 30.953125 -11.226562 30.296875 -10.585938 29.640625 -9.921875 C 28.316406 -8.503906 26.941406 -7.085938 25.515625 -5.671875 C 24.097656 -4.253906 22.539062 -3.023438 20.84375 -1.984375 C 18.757812 -0.753906 16.632812 -0.140625 14.46875 -0.140625 Z M 14.46875 -0.140625 "/></g></g></g><g fill="#000000" fill-opacity="1"><g transform="translate(457.870916, 153.542527)"><g><path d="M -8.796875 30.484375 C -10.117188 30.484375 -11.394531 29.867188 -12.625 28.640625 C -13.851562 27.410156 -14.609375 26.132812 -14.890625 24.8125 C -14.984375 24.25 -15.03125 23.726562 -15.03125 23.25 C -15.03125 21.925781 -14.695312 20.695312 -14.03125 19.5625 C -13.375 18.425781 -12.710938 17.296875 -12.046875 16.171875 C -11.859375 15.878906 -11.671875 15.613281 -11.484375 15.375 C -11.296875 15.144531 -11.203125 14.890625 -11.203125 14.609375 C -11.203125 14.421875 -11.203125 14.226562 -11.203125 14.03125 C -11.203125 13.5625 -11.15625 13.234375 -11.0625 13.046875 C -10.875 12.765625 -10.707031 12.523438 -10.5625 12.328125 C -10.414062 12.140625 -10.34375 11.90625 -10.34375 11.625 C -10.34375 11.53125 -10.367188 11.4375 -10.421875 11.34375 C -10.472656 11.25 -10.5 11.15625 -10.5 11.0625 C -10.5 10.96875 -10.398438 10.847656 -10.203125 10.703125 C -10.015625 10.566406 -9.828125 10.445312 -9.640625 10.34375 C -9.453125 10.25 -9.210938 10.109375 -8.921875 9.921875 C -8.640625 9.734375 -8.5 9.5 -8.5 9.21875 C -8.5 9.03125 -8.5 8.890625 -8.5 8.796875 C -8.5 8.703125 -8.5 8.554688 -8.5 8.359375 C -8.5 8.078125 -8.425781 7.796875 -8.28125 7.515625 C -8.144531 7.234375 -8.03125 7 -7.9375 6.8125 C -7.75 6.613281 -7.582031 6.515625 -7.4375 6.515625 C -7.300781 6.515625 -7.140625 6.46875 -6.953125 6.375 C -6.765625 6.1875 -6.617188 5.953125 -6.515625 5.671875 C -6.421875 5.390625 -6.28125 5.15625 -6.09375 4.96875 C -5.90625 4.675781 -5.691406 4.390625 -5.453125 4.109375 C -5.222656 3.828125 -5.0625 3.546875 -4.96875 3.265625 C -4.675781 2.691406 -4.457031 2.171875 -4.3125 1.703125 C -4.175781 1.234375 -3.921875 0.570312 -3.546875 -0.28125 C -3.359375 -0.46875 -3.144531 -0.773438 -2.90625 -1.203125 C -2.664062 -1.628906 -2.5 -1.9375 -2.40625 -2.125 C -2.3125 -2.5 -2.238281 -2.828125 -2.1875 -3.109375 C -2.144531 -3.398438 -2.078125 -3.734375 -1.984375 -4.109375 C -1.796875 -4.585938 -1.441406 -5.082031 -0.921875 -5.59375 C -0.398438 -6.113281 -0.046875 -6.566406 0.140625 -6.953125 C 0.328125 -7.234375 0.515625 -7.46875 0.703125 -7.65625 C 0.898438 -7.84375 1.09375 -8.078125 1.28125 -8.359375 C 1.375 -8.648438 1.441406 -8.910156 1.484375 -9.140625 C 1.535156 -9.378906 1.609375 -9.59375 1.703125 -9.78125 C 1.796875 -10.0625 1.984375 -10.320312 2.265625 -10.5625 C 2.546875 -10.800781 2.785156 -11.109375 2.984375 -11.484375 C 3.171875 -11.765625 3.265625 -11.953125 3.265625 -12.046875 C 3.265625 -12.140625 3.3125 -12.332031 3.40625 -12.625 C 3.6875 -13.375 4.015625 -14.078125 4.390625 -14.734375 C 4.773438 -15.398438 5.15625 -16.066406 5.53125 -16.734375 C 6 -17.296875 6.46875 -17.835938 6.9375 -18.359375 C 7.414062 -18.878906 7.84375 -19.472656 8.21875 -20.140625 C 8.507812 -20.796875 8.722656 -21.382812 8.859375 -21.90625 C 9.003906 -22.425781 9.171875 -22.96875 9.359375 -23.53125 C 9.640625 -24.195312 10.015625 -24.765625 10.484375 -25.234375 C 10.960938 -25.710938 11.34375 -26.234375 11.625 -26.796875 C 11.90625 -27.367188 12.257812 -27.769531 12.6875 -28 C 13.113281 -28.238281 13.46875 -28.691406 13.75 -29.359375 C 13.84375 -29.546875 13.910156 -29.753906 13.953125 -29.984375 C 14.003906 -30.222656 14.078125 -30.4375 14.171875 -30.625 C 14.273438 -30.8125 14.421875 -31 14.609375 -31.1875 C 14.890625 -31.382812 15.171875 -31.765625 15.453125 -32.328125 C 15.734375 -32.992188 15.992188 -33.65625 16.234375 -34.3125 C 16.472656 -34.976562 16.828125 -35.640625 17.296875 -36.296875 C 17.960938 -37.429688 18.578125 -38.632812 19.140625 -39.90625 C 19.710938 -41.1875 20.375 -42.441406 21.125 -43.671875 C 21.3125 -43.859375 21.5 -44.046875 21.6875 -44.234375 C 21.882812 -44.429688 22.078125 -44.671875 22.265625 -44.953125 C 22.546875 -45.234375 22.707031 -45.488281 22.75 -45.71875 C 22.800781 -45.957031 22.921875 -46.269531 23.109375 -46.65625 C 23.203125 -46.84375 23.320312 -47.125 23.46875 -47.5 C 23.613281 -47.875 23.78125 -48.109375 23.96875 -48.203125 C 24.15625 -48.304688 24.316406 -48.359375 24.453125 -48.359375 C 24.597656 -48.359375 24.765625 -48.359375 24.953125 -48.359375 C 25.429688 -48.546875 25.953125 -49.039062 26.515625 -49.84375 C 27.078125 -50.644531 27.550781 -51.378906 27.9375 -52.046875 C 28.3125 -52.703125 28.664062 -53.359375 29 -54.015625 C 29.332031 -54.679688 29.78125 -55.25 30.34375 -55.71875 C 30.625 -55.914062 30.953125 -56.15625 31.328125 -56.4375 C 31.710938 -56.71875 31.90625 -57 31.90625 -57.28125 C 31.90625 -57.375 31.859375 -57.492188 31.765625 -57.640625 C 31.671875 -57.785156 31.625 -57.953125 31.625 -58.140625 C 31.625 -58.703125 31.953125 -59.242188 32.609375 -59.765625 C 33.273438 -60.285156 33.890625 -60.546875 34.453125 -60.546875 C 35.117188 -60.546875 35.6875 -60.257812 36.15625 -59.6875 C 36.625 -59.125 37.050781 -58.65625 37.4375 -58.28125 C 38.28125 -57.425781 38.703125 -56.523438 38.703125 -55.578125 C 38.703125 -55.296875 38.703125 -55.082031 38.703125 -54.9375 C 38.703125 -54.800781 38.703125 -54.734375 38.703125 -54.734375 C 38.703125 -53.597656 38.300781 -52.296875 37.5 -50.828125 C 36.695312 -49.367188 35.875 -47.882812 35.03125 -46.375 C 34.644531 -45.613281 34.265625 -44.898438 33.890625 -44.234375 C 33.515625 -43.578125 33.085938 -42.914062 32.609375 -42.25 C 32.515625 -42.0625 32.328125 -41.707031 32.046875 -41.1875 C 31.765625 -40.664062 31.625 -40.21875 31.625 -39.84375 C 31.625 -39.5625 31.71875 -39.421875 31.90625 -39.421875 C 32.375 -39.421875 32.9375 -39.84375 33.59375 -40.6875 C 34.257812 -41.539062 34.878906 -42.207031 35.453125 -42.6875 C 36.015625 -43.34375 36.625 -43.953125 37.28125 -44.515625 C 37.945312 -45.085938 38.613281 -45.609375 39.28125 -46.078125 C 40.125 -46.554688 41.039062 -47.003906 42.03125 -47.421875 C 43.03125 -47.847656 44.003906 -48.0625 44.953125 -48.0625 C 46.179688 -48.0625 47.21875 -47.734375 48.0625 -47.078125 C 48.539062 -46.609375 48.921875 -46.113281 49.203125 -45.59375 C 49.484375 -45.070312 49.816406 -44.523438 50.203125 -43.953125 C 50.578125 -43.484375 50.90625 -43.082031 51.1875 -42.75 C 51.46875 -42.414062 51.609375 -42.015625 51.609375 -41.546875 C 51.609375 -40.984375 51.5625 -40.535156 51.46875 -40.203125 C 51.375 -39.867188 51.328125 -39.421875 51.328125 -38.859375 C 51.328125 -38.472656 51.347656 -38.113281 51.390625 -37.78125 C 51.441406 -37.457031 51.46875 -37.101562 51.46875 -36.71875 C 51.46875 -35.78125 51.347656 -34.8125 51.109375 -33.8125 C 50.878906 -32.820312 50.625 -31.851562 50.34375 -30.90625 C 49.300781 -27.789062 47.878906 -24.71875 46.078125 -21.6875 C 45.328125 -20.5625 44.476562 -19.335938 43.53125 -18.015625 C 43.0625 -17.347656 42.585938 -16.632812 42.109375 -15.875 C 41.921875 -15.6875 41.613281 -15.351562 41.1875 -14.875 C 40.757812 -14.40625 40.546875 -13.984375 40.546875 -13.609375 C 40.546875 -13.234375 40.738281 -13.046875 41.125 -13.046875 C 41.40625 -13.046875 41.78125 -13.1875 42.25 -13.46875 C 42.726562 -13.75 43.0625 -13.984375 43.25 -14.171875 C 43.90625 -14.648438 44.5625 -15.171875 45.21875 -15.734375 C 45.882812 -16.304688 46.597656 -16.828125 47.359375 -17.296875 C 48.679688 -18.335938 49.910156 -19.445312 51.046875 -20.625 C 52.179688 -21.8125 53.316406 -23.019531 54.453125 -24.25 C 55.585938 -25.570312 56.695312 -26.820312 57.78125 -28 C 58.863281 -29.1875 60.019531 -30.394531 61.25 -31.625 C 61.726562 -32.09375 62.175781 -32.609375 62.59375 -33.171875 C 63.019531 -33.742188 63.425781 -34.3125 63.8125 -34.875 C 64 -35.164062 64.253906 -35.519531 64.578125 -35.9375 C 64.910156 -36.363281 65.269531 -36.578125 65.65625 -36.578125 C 65.84375 -36.578125 66.03125 -36.410156 66.21875 -36.078125 C 66.40625 -35.753906 66.5 -35.40625 66.5 -35.03125 C 66.5 -34.457031 66.378906 -33.863281 66.140625 -33.25 C 65.910156 -32.632812 65.75 -32.09375 65.65625 -31.625 C 65.5625 -30.675781 65.414062 -29.773438 65.21875 -28.921875 C 65.03125 -28.078125 64.75 -27.273438 64.375 -26.515625 C 63.519531 -25.097656 62.550781 -23.773438 61.46875 -22.546875 C 60.382812 -21.316406 59.320312 -20.085938 58.28125 -18.859375 C 56.101562 -16.117188 53.710938 -13.679688 51.109375 -11.546875 C 48.515625 -9.421875 45.753906 -7.414062 42.828125 -5.53125 C 41.304688 -4.582031 39.8125 -3.726562 38.34375 -2.96875 C 36.882812 -2.21875 35.304688 -1.65625 33.609375 -1.28125 C 32.941406 -1.09375 32.226562 -0.925781 31.46875 -0.78125 C 30.71875 -0.632812 29.960938 -0.515625 29.203125 -0.421875 C 28.546875 -0.328125 27.882812 -0.28125 27.21875 -0.28125 C 26.75 -0.1875 26.253906 -0.0703125 25.734375 0.0625 C 25.210938 0.207031 24.71875 0.28125 24.25 0.28125 C 23.675781 0.28125 23.054688 0.140625 22.390625 -0.140625 C 21.734375 -0.421875 21.125 -0.65625 20.5625 -0.84375 C 19.800781 -1.039062 19.039062 -1.28125 18.28125 -1.5625 C 17.53125 -1.84375 16.875 -2.21875 16.3125 -2.6875 C 15.175781 -3.632812 14.132812 -4.769531 13.1875 -6.09375 C 12.90625 -6.570312 12.738281 -6.925781 12.6875 -7.15625 C 12.644531 -7.394531 12.53125 -7.515625 12.34375 -7.515625 C 12.144531 -7.515625 11.953125 -7.375 11.765625 -7.09375 C 11.578125 -6.8125 11.484375 -6.570312 11.484375 -6.375 C 11.203125 -5.625 10.96875 -4.894531 10.78125 -4.1875 C 10.59375 -3.476562 10.257812 -2.789062 9.78125 -2.125 C 9.40625 -1.46875 9.003906 -0.832031 8.578125 -0.21875 C 8.148438 0.394531 7.796875 1.035156 7.515625 1.703125 C 7.234375 2.359375 6.925781 2.992188 6.59375 3.609375 C 6.257812 4.222656 5.859375 4.816406 5.390625 5.390625 C 4.441406 6.617188 3.734375 7.847656 3.265625 9.078125 C 2.972656 9.921875 2.6875 10.742188 2.40625 11.546875 C 2.125 12.359375 1.796875 13.140625 1.421875 13.890625 C 0.753906 15.210938 0 16.347656 -0.84375 17.296875 C -1.414062 17.960938 -1.816406 18.601562 -2.046875 19.21875 C -2.285156 19.832031 -2.546875 20.5625 -2.828125 21.40625 C -3.117188 22.070312 -3.5 22.710938 -3.96875 23.328125 C -4.4375 23.941406 -4.816406 24.625 -5.109375 25.375 C -5.296875 25.664062 -5.390625 25.953125 -5.390625 26.234375 C -5.390625 26.515625 -5.4375 26.796875 -5.53125 27.078125 C -5.625 27.265625 -5.785156 27.429688 -6.015625 27.578125 C -6.253906 27.722656 -6.421875 28.03125 -6.515625 28.5 C -6.804688 29.070312 -7.113281 29.546875 -7.4375 29.921875 C -7.769531 30.296875 -8.222656 30.484375 -8.796875 30.484375 Z M 22.265625 -9.359375 C 23.304688 -9.359375 24.34375 -9.878906 25.375 -10.921875 C 26.414062 -11.960938 27.222656 -12.8125 27.796875 -13.46875 C 28.734375 -14.414062 29.582031 -15.476562 30.34375 -16.65625 C 31.101562 -17.84375 31.859375 -19.050781 32.609375 -20.28125 C 33.367188 -21.507812 34.125 -22.710938 34.875 -23.890625 C 35.632812 -25.078125 36.347656 -26.332031 37.015625 -27.65625 C 37.578125 -28.882812 38.1875 -30.085938 38.84375 -31.265625 C 39.507812 -32.441406 40.128906 -33.644531 40.703125 -34.875 C 40.890625 -35.351562 41.078125 -35.828125 41.265625 -36.296875 C 41.453125 -36.773438 41.546875 -37.25 41.546875 -37.71875 C 41.546875 -38 41.453125 -38.375 41.265625 -38.84375 C 41.078125 -39.320312 40.789062 -39.5625 40.40625 -39.5625 C 40.125 -39.5625 39.703125 -39.328125 39.140625 -38.859375 C 38.191406 -38.003906 37.289062 -37.101562 36.4375 -36.15625 C 35.59375 -35.207031 34.695312 -34.3125 33.75 -33.46875 C 32.707031 -32.613281 31.738281 -31.757812 30.84375 -30.90625 C 29.945312 -30.0625 29.070312 -29.117188 28.21875 -28.078125 C 27.269531 -26.941406 26.25 -25.851562 25.15625 -24.8125 C 24.070312 -23.769531 23.109375 -22.679688 22.265625 -21.546875 C 21.597656 -20.609375 20.769531 -19.570312 19.78125 -18.4375 C 18.789062 -17.300781 18.296875 -16.210938 18.296875 -15.171875 C 18.296875 -14.410156 18.484375 -13.84375 18.859375 -13.46875 C 19.234375 -13.09375 19.5625 -12.71875 19.84375 -12.34375 C 20.132812 -11.863281 20.421875 -11.242188 20.703125 -10.484375 C 20.984375 -9.734375 21.503906 -9.359375 22.265625 -9.359375 Z M 22.265625 -9.359375 "/></g></g></g><g fill="#000000" fill-opacity="1"><g transform="translate(504.239615, 153.542527)"><g><path d="M 20.28125 -0.140625 C 18.769531 -0.140625 17.253906 -0.328125 15.734375 -0.703125 C 14.984375 -0.898438 14.226562 -1.1875 13.46875 -1.5625 C 12.71875 -1.9375 12.054688 -2.457031 11.484375 -3.125 C 11.203125 -3.40625 11.015625 -3.707031 10.921875 -4.03125 C 10.828125 -4.363281 10.6875 -4.722656 10.5 -5.109375 C 10.300781 -5.484375 10.015625 -5.71875 9.640625 -5.8125 C 9.265625 -5.90625 8.984375 -6.140625 8.796875 -6.515625 C 8.597656 -6.804688 8.472656 -7.160156 8.421875 -7.578125 C 8.378906 -8.003906 8.359375 -8.410156 8.359375 -8.796875 C 8.265625 -9.078125 8.21875 -9.3125 8.21875 -9.5 C 8.21875 -9.6875 8.125 -9.875 7.9375 -10.0625 C 7.75 -10.351562 7.5625 -10.59375 7.375 -10.78125 C 7.1875 -10.96875 7.09375 -11.203125 7.09375 -11.484375 C 7.09375 -11.859375 7.140625 -12.1875 7.234375 -12.46875 C 7.328125 -12.757812 7.375 -13.09375 7.375 -13.46875 C 7.375 -13.9375 7.347656 -14.382812 7.296875 -14.8125 C 7.253906 -15.238281 7.234375 -15.59375 7.234375 -15.875 C 7.234375 -16.164062 7.234375 -16.453125 7.234375 -16.734375 C 7.703125 -18.523438 8.21875 -20.296875 8.78125 -22.046875 C 9.351562 -23.796875 10.160156 -25.425781 11.203125 -26.9375 C 11.859375 -27.882812 12.46875 -28.828125 13.03125 -29.765625 C 13.601562 -30.710938 14.175781 -31.660156 14.75 -32.609375 C 15.40625 -33.554688 16.113281 -34.429688 16.875 -35.234375 C 17.632812 -36.035156 18.34375 -36.910156 19 -37.859375 C 19.5625 -38.617188 20.269531 -39.375 21.125 -40.125 C 21.5 -40.507812 21.921875 -40.84375 22.390625 -41.125 C 22.867188 -41.40625 23.300781 -41.734375 23.6875 -42.109375 C 23.96875 -42.492188 24.203125 -42.847656 24.390625 -43.171875 C 24.578125 -43.503906 24.859375 -43.8125 25.234375 -44.09375 C 25.617188 -44.382812 25.953125 -44.691406 26.234375 -45.015625 C 26.515625 -45.347656 26.84375 -45.609375 27.21875 -45.796875 C 27.601562 -45.984375 28.03125 -46.078125 28.5 -46.078125 C 28.96875 -46.078125 29.441406 -46.125 29.921875 -46.21875 C 30.296875 -46.320312 30.695312 -46.46875 31.125 -46.65625 C 31.550781 -46.84375 31.953125 -47.078125 32.328125 -47.359375 C 33.554688 -48.117188 34.878906 -48.5 36.296875 -48.5 C 36.671875 -48.5 37.070312 -48.445312 37.5 -48.34375 C 37.925781 -48.25 38.378906 -48.15625 38.859375 -48.0625 C 41.023438 -47.6875 42.722656 -46.554688 43.953125 -44.671875 C 44.140625 -44.472656 44.492188 -43.6875 45.015625 -42.3125 C 45.535156 -40.945312 45.796875 -39.796875 45.796875 -38.859375 C 45.796875 -36.960938 45.320312 -35 44.375 -32.96875 C 43.4375 -30.9375 42.398438 -29.210938 41.265625 -27.796875 C 40.035156 -26.085938 38.546875 -24.738281 36.796875 -23.75 C 35.046875 -22.757812 33.273438 -21.835938 31.484375 -20.984375 C 30.535156 -20.609375 29.609375 -20.207031 28.703125 -19.78125 C 27.804688 -19.351562 26.84375 -19.140625 25.8125 -19.140625 C 25.050781 -19.140625 24.195312 -19.425781 23.25 -20 C 22.875 -20.09375 22.472656 -20.300781 22.046875 -20.625 C 21.617188 -20.957031 21.21875 -21.125 20.84375 -21.125 C 20.175781 -21.125 19.535156 -20.648438 18.921875 -19.703125 C 18.316406 -18.765625 17.914062 -17.960938 17.71875 -17.296875 C 17.53125 -16.734375 17.34375 -16.097656 17.15625 -15.390625 C 16.96875 -14.679688 16.875 -13.992188 16.875 -13.328125 C 16.875 -13.046875 16.96875 -12.617188 17.15625 -12.046875 C 17.34375 -11.484375 17.484375 -11.109375 17.578125 -10.921875 C 18.148438 -9.878906 19.191406 -9.359375 20.703125 -9.359375 C 22.304688 -9.359375 23.628906 -9.617188 24.671875 -10.140625 C 25.710938 -10.660156 26.707031 -11.109375 27.65625 -11.484375 C 31.238281 -13.179688 34.546875 -15.210938 37.578125 -17.578125 C 38.523438 -18.335938 39.421875 -19.046875 40.265625 -19.703125 C 41.117188 -20.367188 41.925781 -21.082031 42.6875 -21.84375 C 43.4375 -22.5 44.164062 -23.179688 44.875 -23.890625 C 45.582031 -24.597656 46.269531 -25.332031 46.9375 -26.09375 C 47.6875 -26.75 48.414062 -27.429688 49.125 -28.140625 C 49.84375 -28.847656 50.53125 -29.535156 51.1875 -30.203125 C 51.851562 -30.859375 52.5625 -31.613281 53.3125 -32.46875 C 53.6875 -32.84375 54.0625 -33.289062 54.4375 -33.8125 C 54.820312 -34.332031 55.25 -34.59375 55.71875 -34.59375 C 56.289062 -34.59375 56.578125 -34.023438 56.578125 -32.890625 C 56.578125 -32.421875 56.503906 -31.925781 56.359375 -31.40625 C 56.222656 -30.882812 56.15625 -30.53125 56.15625 -30.34375 C 56.0625 -29.300781 55.941406 -28.351562 55.796875 -27.5 C 55.648438 -26.65625 55.296875 -25.804688 54.734375 -24.953125 C 53.597656 -23.441406 52.390625 -21.90625 51.109375 -20.34375 C 49.835938 -18.789062 48.539062 -17.347656 47.21875 -16.015625 C 45.707031 -14.597656 44.171875 -13.203125 42.609375 -11.828125 C 41.046875 -10.460938 39.507812 -9.117188 38 -7.796875 C 36.394531 -6.566406 34.71875 -5.429688 32.96875 -4.390625 C 31.21875 -3.347656 29.398438 -2.453125 27.515625 -1.703125 C 25.148438 -0.660156 22.738281 -0.140625 20.28125 -0.140625 Z M 25.375 -26.234375 C 26.507812 -26.234375 28.070312 -26.847656 30.0625 -28.078125 C 31.570312 -29.023438 32.707031 -30.160156 33.46875 -31.484375 C 34.40625 -32.898438 35.253906 -34.363281 36.015625 -35.875 C 36.203125 -36.15625 36.4375 -36.578125 36.71875 -37.140625 C 37.007812 -37.710938 37.15625 -38.234375 37.15625 -38.703125 C 37.15625 -39.179688 36.914062 -39.421875 36.4375 -39.421875 C 35.78125 -39.421875 35.046875 -39.113281 34.234375 -38.5 C 33.429688 -37.882812 32.84375 -37.335938 32.46875 -36.859375 C 31.8125 -36.203125 31.222656 -35.566406 30.703125 -34.953125 C 30.179688 -34.335938 29.585938 -33.75 28.921875 -33.1875 C 27.785156 -32.332031 26.84375 -31.195312 26.09375 -29.78125 C 26 -29.59375 25.757812 -29.164062 25.375 -28.5 C 25 -27.84375 24.8125 -27.273438 24.8125 -26.796875 C 24.8125 -26.421875 25 -26.234375 25.375 -26.234375 Z M 25.375 -26.234375 "/></g></g></g><g fill="#000000" fill-opacity="1"><g transform="translate(541.674883, 153.542527)"><g><path d="M 15.875 0.5625 C 14.550781 0.5625 13.46875 0.421875 12.625 0.140625 C 11.769531 -0.140625 10.941406 -0.632812 10.140625 -1.34375 C 9.335938 -2.050781 8.695312 -2.691406 8.21875 -3.265625 C 6.613281 -5.054688 5.429688 -7.226562 4.671875 -9.78125 C 4.484375 -10.15625 4.410156 -10.578125 4.453125 -11.046875 C 4.503906 -11.523438 4.484375 -12.003906 4.390625 -12.484375 C 4.296875 -13.140625 4.109375 -13.609375 3.828125 -13.890625 C 3.453125 -14.273438 3.003906 -14.628906 2.484375 -14.953125 C 1.960938 -15.285156 1.703125 -15.738281 1.703125 -16.3125 C 1.703125 -16.96875 1.984375 -17.625 2.546875 -18.28125 C 3.117188 -18.945312 3.6875 -19.566406 4.25 -20.140625 C 4.820312 -20.703125 5.414062 -21.289062 6.03125 -21.90625 C 6.644531 -22.519531 7.234375 -23.160156 7.796875 -23.828125 C 9.023438 -25.148438 10.179688 -26.519531 11.265625 -27.9375 C 12.359375 -29.351562 13.472656 -30.816406 14.609375 -32.328125 C 15.648438 -33.648438 16.710938 -34.972656 17.796875 -36.296875 C 18.878906 -37.617188 19.988281 -38.941406 21.125 -40.265625 C 21.976562 -41.304688 22.875 -42.320312 23.8125 -43.3125 C 24.757812 -44.3125 25.660156 -45.28125 26.515625 -46.21875 C 26.890625 -46.507812 27.335938 -46.816406 27.859375 -47.140625 C 28.378906 -47.472656 28.828125 -47.78125 29.203125 -48.0625 C 29.679688 -48.445312 30.179688 -48.875 30.703125 -49.34375 C 31.222656 -49.8125 31.765625 -50.046875 32.328125 -50.046875 C 32.796875 -50.046875 33.195312 -49.925781 33.53125 -49.6875 C 33.863281 -49.457031 34.171875 -49.25 34.453125 -49.0625 C 34.734375 -48.875 35.039062 -48.78125 35.375 -48.78125 C 35.707031 -48.78125 36.0625 -48.734375 36.4375 -48.640625 C 37.476562 -48.253906 38.210938 -47.585938 38.640625 -46.640625 C 39.066406 -45.703125 39.28125 -44.664062 39.28125 -43.53125 C 39.28125 -43.0625 39.234375 -42.585938 39.140625 -42.109375 C 38.953125 -40.503906 38.738281 -38.894531 38.5 -37.28125 C 38.257812 -35.675781 37.953125 -34.070312 37.578125 -32.46875 C 37.296875 -30.769531 36.847656 -29.09375 36.234375 -27.4375 C 35.617188 -25.78125 35.023438 -24.101562 34.453125 -22.40625 C 34.171875 -21.550781 33.890625 -20.742188 33.609375 -19.984375 C 33.328125 -19.234375 32.992188 -18.382812 32.609375 -17.4375 C 32.515625 -17.34375 32.394531 -17.128906 32.25 -16.796875 C 32.113281 -16.472656 32.046875 -16.070312 32.046875 -15.59375 C 32.046875 -15.21875 32.1875 -15.03125 32.46875 -15.03125 C 32.65625 -15.03125 32.890625 -15.097656 33.171875 -15.234375 C 33.460938 -15.378906 33.65625 -15.5 33.75 -15.59375 C 35.351562 -16.632812 36.769531 -17.742188 38 -18.921875 C 39.226562 -20.109375 40.503906 -21.410156 41.828125 -22.828125 C 42.585938 -23.492188 43.273438 -24.226562 43.890625 -25.03125 C 44.503906 -25.832031 45.140625 -26.609375 45.796875 -27.359375 C 46.460938 -27.929688 47.054688 -28.546875 47.578125 -29.203125 C 48.097656 -29.867188 48.6875 -30.484375 49.34375 -31.046875 C 49.8125 -31.429688 50.378906 -32 51.046875 -32.75 C 51.234375 -33.039062 51.515625 -33.421875 51.890625 -33.890625 C 52.273438 -34.359375 52.609375 -34.6875 52.890625 -34.875 C 52.984375 -34.976562 53.125 -35.03125 53.3125 -35.03125 C 53.882812 -35.03125 54.21875 -34.648438 54.3125 -33.890625 C 54.40625 -33.515625 54.453125 -33.160156 54.453125 -32.828125 C 54.453125 -32.492188 54.453125 -32.140625 54.453125 -31.765625 C 54.453125 -30.253906 53.882812 -28.53125 52.75 -26.59375 C 51.613281 -24.65625 50.191406 -22.710938 48.484375 -20.765625 C 46.785156 -18.828125 45.132812 -17.054688 43.53125 -15.453125 C 42.113281 -14.035156 40.597656 -12.570312 38.984375 -11.0625 C 37.378906 -9.550781 35.726562 -8.179688 34.03125 -6.953125 C 32.800781 -6.097656 31.570312 -5.363281 30.34375 -4.75 C 29.113281 -4.132812 27.882812 -3.492188 26.65625 -2.828125 C 26 -2.546875 25.21875 -2.191406 24.3125 -1.765625 C 23.414062 -1.347656 22.539062 -0.945312 21.6875 -0.5625 C 19.519531 0.1875 17.582031 0.5625 15.875 0.5625 Z M 14.46875 -9.5 C 15.03125 -9.5 15.5 -9.640625 15.875 -9.921875 C 16.820312 -10.585938 17.722656 -11.488281 18.578125 -12.625 C 18.953125 -13.09375 19.328125 -13.65625 19.703125 -14.3125 C 20.085938 -14.976562 20.375 -15.5 20.5625 -15.875 C 20.75 -16.257812 21.078125 -16.5 21.546875 -16.59375 C 22.210938 -16.78125 22.546875 -17.15625 22.546875 -17.71875 C 22.546875 -17.914062 22.519531 -18.082031 22.46875 -18.21875 C 22.425781 -18.363281 22.40625 -18.53125 22.40625 -18.71875 C 22.40625 -19.1875 22.6875 -19.585938 23.25 -19.921875 C 23.820312 -20.253906 24.109375 -20.609375 24.109375 -20.984375 C 24.109375 -21.171875 24.035156 -21.3125 23.890625 -21.40625 C 23.753906 -21.5 23.6875 -21.644531 23.6875 -21.84375 C 23.6875 -22.125 23.734375 -22.332031 23.828125 -22.46875 C 23.921875 -22.613281 23.96875 -22.78125 23.96875 -22.96875 C 23.96875 -23.25 23.867188 -23.460938 23.671875 -23.609375 C 23.484375 -23.753906 23.390625 -23.96875 23.390625 -24.25 C 23.390625 -24.625 23.484375 -25.023438 23.671875 -25.453125 C 23.867188 -25.878906 24.0625 -26.375 24.25 -26.9375 C 24.4375 -27.507812 24.578125 -28.003906 24.671875 -28.421875 C 24.765625 -28.847656 24.90625 -29.300781 25.09375 -29.78125 C 25.1875 -30.25 25.253906 -30.671875 25.296875 -31.046875 C 25.347656 -31.429688 25.566406 -31.859375 25.953125 -32.328125 C 26.140625 -32.703125 26.28125 -33.035156 26.375 -33.328125 C 26.375 -33.703125 26.234375 -33.890625 25.953125 -33.890625 C 25.472656 -33.890625 24.925781 -33.648438 24.3125 -33.171875 C 23.695312 -32.703125 23.109375 -32.234375 22.546875 -31.765625 C 22.078125 -31.285156 21.695312 -30.832031 21.40625 -30.40625 C 21.125 -29.988281 20.796875 -29.585938 20.421875 -29.203125 C 19.472656 -28.171875 18.597656 -27.085938 17.796875 -25.953125 C 16.992188 -24.816406 16.164062 -23.726562 15.3125 -22.6875 C 14.457031 -21.738281 13.460938 -20.742188 12.328125 -19.703125 C 11.203125 -18.671875 10.640625 -17.585938 10.640625 -16.453125 C 10.640625 -15.503906 10.800781 -14.4375 11.125 -13.25 C 11.457031 -12.070312 11.71875 -11.25 11.90625 -10.78125 C 12.09375 -10.488281 12.46875 -10.203125 13.03125 -9.921875 C 13.601562 -9.640625 14.082031 -9.5 14.46875 -9.5 Z M 14.46875 -9.5 "/></g></g></g><g fill="#000000" fill-opacity="1"><g transform="translate(11.774126, 161.220374)"><g><path d="M 55.703125 -34.25 L 26.34375 -34.25 L 26.34375 0 L 7.53125 0 L 7.53125 -85.3125 L 56.96875 -85.3125 L 56.96875 -68.25 L 26.34375 -68.25 L 26.34375 -51.3125 L 55.703125 -51.3125 Z M 55.703125 -34.25 "/></g></g></g><g fill="#000000" fill-opacity="1"><g transform="translate(75.007546, 161.220374)"><g><path d="M 36.015625 -13.046875 C 39.359375 -13.046875 41.945312 -13.753906 43.78125 -15.171875 C 45.625 -16.597656 46.921875 -18.421875 47.671875 -20.640625 C 48.429688 -22.859375 48.8125 -25.140625 48.8125 -27.484375 C 48.8125 -29.816406 48.410156 -32.070312 47.609375 -34.25 C 46.816406 -36.425781 45.5 -38.222656 43.65625 -39.640625 C 41.820312 -41.066406 39.273438 -41.78125 36.015625 -41.78125 C 32.742188 -41.78125 30.164062 -41.066406 28.28125 -39.640625 C 26.40625 -38.222656 25.070312 -36.425781 24.28125 -34.25 C 23.488281 -32.070312 23.09375 -29.816406 23.09375 -27.484375 C 23.09375 -25.140625 23.46875 -22.859375 24.21875 -20.640625 C 24.96875 -18.421875 26.28125 -16.597656 28.15625 -15.171875 C 30.039062 -13.753906 32.660156 -13.046875 36.015625 -13.046875 Z M 36.015625 -56.453125 C 41.785156 -56.453125 47.050781 -55.238281 51.8125 -52.8125 C 56.582031 -50.394531 60.390625 -47.03125 63.234375 -42.71875 C 66.078125 -38.414062 67.5 -33.378906 67.5 -27.609375 C 67.5 -21.742188 66.097656 -16.65625 63.296875 -12.34375 C 60.492188 -8.039062 56.707031 -4.71875 51.9375 -2.375 C 47.175781 -0.0390625 41.867188 1.125 36.015625 1.125 C 30.160156 1.125 24.828125 -0.0390625 20.015625 -2.375 C 15.203125 -4.71875 11.394531 -8.039062 8.59375 -12.34375 C 5.789062 -16.65625 4.390625 -21.742188 4.390625 -27.609375 C 4.390625 -33.378906 5.8125 -38.414062 8.65625 -42.71875 C 11.5 -47.03125 15.328125 -50.394531 20.140625 -52.8125 C 24.953125 -55.238281 30.242188 -56.453125 36.015625 -56.453125 Z M 36.015625 -56.453125 "/></g></g></g><g fill="#000000" fill-opacity="1"><g transform="translate(146.897932, 161.220374)"><g><path d="M 6.265625 -23.84375 L 6.265625 -55.328125 L 25.09375 -55.328125 L 25.09375 -23.84375 C 25.09375 -20.664062 25.757812 -18.195312 27.09375 -16.4375 C 28.4375 -14.675781 30.570312 -13.796875 33.5 -13.796875 C 36.425781 -13.796875 38.914062 -15.175781 40.96875 -17.9375 C 43.019531 -20.695312 44.046875 -23.921875 44.046875 -27.609375 L 44.046875 -55.328125 L 62.859375 -55.328125 L 62.859375 0 L 44.046875 0 L 44.046875 -6.78125 C 42.203125 -4.4375 39.835938 -2.507812 36.953125 -1 C 34.066406 0.5 30.78125 1.25 27.09375 1.25 C 19.738281 1.25 14.425781 -1.066406 11.15625 -5.703125 C 7.894531 -10.347656 6.265625 -16.394531 6.265625 -23.84375 Z M 6.265625 -23.84375 "/></g></g></g><g fill="#000000" fill-opacity="1"><g transform="translate(217.282756, 161.220374)"><g><path d="M 50.8125 -27.609375 C 50.8125 -30.023438 50.222656 -32.28125 49.046875 -34.375 C 47.878906 -36.46875 46.3125 -38.160156 44.34375 -39.453125 C 42.382812 -40.753906 40.148438 -41.40625 37.640625 -41.40625 C 35.128906 -41.40625 32.890625 -40.753906 30.921875 -39.453125 C 28.960938 -38.160156 27.394531 -36.46875 26.21875 -34.375 C 25.050781 -32.28125 24.46875 -30.023438 24.46875 -27.609375 C 24.46875 -25.179688 25.050781 -22.921875 26.21875 -20.828125 C 27.394531 -18.734375 28.960938 -17.035156 30.921875 -15.734375 C 32.890625 -14.441406 35.128906 -13.796875 37.640625 -13.796875 C 40.148438 -13.796875 42.382812 -14.441406 44.34375 -15.734375 C 46.3125 -17.035156 47.878906 -18.734375 49.046875 -20.828125 C 50.222656 -22.921875 50.8125 -25.179688 50.8125 -27.609375 Z M 69.640625 -94.09375 L 69.640625 0 L 50.8125 0 L 50.8125 -6.65625 C 48.96875 -3.8125 46.226562 -1.78125 42.59375 -0.5625 C 38.957031 0.644531 35.382812 1.25 31.875 1.25 C 26.6875 1.25 22 -0.0859375 17.8125 -2.765625 C 13.632812 -5.441406 10.351562 -8.972656 7.96875 -13.359375 C 5.582031 -17.753906 4.390625 -22.503906 4.390625 -27.609375 C 4.390625 -32.703125 5.582031 -37.445312 7.96875 -41.84375 C 10.351562 -46.238281 13.632812 -49.796875 17.8125 -52.515625 C 22 -55.234375 26.6875 -56.59375 31.875 -56.59375 C 35.382812 -56.59375 38.8125 -56.003906 42.15625 -54.828125 C 45.5 -53.660156 48.382812 -51.570312 50.8125 -48.5625 L 50.8125 -94.09375 Z M 69.640625 -94.09375 "/></g></g></g></svg>